<svg width="153" height="166" viewBox="0 0 153 166" fill="none" xmlns="http://www.w3.org/2000/svg">
<path d="M76.4767 162.999C76.4767 162.999 145.163 163.837 149.612 120.248C151.66 100.191 145.546 82.135 132.534 71.882C131.476 52.0672 123.881 30.8201 113.433 17.8996C113.433 17.8996 120.055 7.47591 118.457 5.10589C114.944 -0.104233 102.904 9.03757 102.904 9.03757C95.9149 5.17981 86.5843 3 76.4767 3C66.3692 3 57.0851 5.17981 50.0957 9.03757C50.0957 9.03757 38.0559 -0.104233 34.5429 5.10589C32.9449 7.47591 39.5675 17.8996 39.5675 17.8996C29.119 30.8201 21.5238 52.0672 20.4659 71.882C7.45433 82.135 1.34039 100.191 3.38773 120.248C7.83705 163.837 76.4767 162.999 76.4767 162.999Z" fill="#C99875" stroke="#5A3F26" stroke-width="4.56989" stroke-linecap="round"/>
<path d="M76.4767 3.00053C86.5843 3.00053 95.9149 5.17981 102.904 9.03757C102.904 9.03757 114.944 -0.104232 118.457 5.10589C120.055 7.47591 113.433 17.8996 113.433 17.8996C123.881 30.8201 131.476 52.0672 132.534 71.882C145.546 82.135 151.66 100.191 149.612 120.248C145.163 163.837 76.4767 162.999 76.4767 162.999C76.4767 162.999 7.83705 163.837 3.38773 120.248C1.34039 100.191 7.45433 82.135 20.4659 71.882C21.5238 52.0672 29.119 30.8201 39.5675 17.8996C39.5675 17.8996 32.9449 7.47591 34.5429 5.10589C38.0559 -0.104232 50.0957 9.03757 50.0957 9.03757C57.0851 5.17981 66.3692 3 76.4767 3" stroke="#5A3F26" stroke-width="4.56989" stroke-linecap="round"/>
<g filter="url(#filter0_f_25_1255)">
<path d="M36.0619 3.37934C38.3367 2.11859 43.8471 3.97424 51.1895 9.33922C51.1895 9.33922 48.362 13.1435 46.4488 14.8406C44.4051 16.6534 40.0428 18.852 40.0428 18.852C36.2709 13.0389 31.9397 5.66397 36.0619 3.37934Z" fill="#88624E"/>
</g>
<g filter="url(#filter1_f_25_1255)">
<path d="M116.823 3.37934C114.548 2.11859 109.038 3.97424 101.695 9.33922C101.695 9.33922 104.523 13.1435 106.436 14.8406C108.48 16.6534 112.842 18.852 112.842 18.852C116.614 13.0389 120.945 5.66397 116.823 3.37934Z" fill="#88624E"/>
</g>
<g filter="url(#filter2_f_25_1255)">
<path d="M94.4422 59.4989C94.4422 71.3358 94.4422 80.078 76.4711 80.078C58.5 80.078 58.5 71.3358 58.5 59.4989C58.5 47.6621 69.1917 38.0664 76.4711 38.0664C86.3962 38.0664 94.4422 47.6621 94.4422 59.4989Z" fill="#88624F"/>
</g>
<path d="M76.4767 3.00053C86.5843 3.00053 95.9149 5.17981 102.904 9.03757C102.904 9.03757 114.944 -0.104232 118.457 5.10589C120.055 7.47591 113.433 17.8996 113.433 17.8996C123.881 30.8201 131.476 52.0672 132.534 71.882C145.546 82.135 151.66 100.191 149.612 120.248C147.55 140.451 131.689 151.11 115.262 156.732C96.248 163.24 76.4767 162.999 76.4767 162.999C76.4767 162.999 7.83705 163.837 3.38773 120.248C1.34039 100.191 7.45433 82.135 20.4659 71.882C21.5238 52.0672 29.119 30.8201 39.5675 17.8996C39.5675 17.8996 32.9449 7.47591 34.5429 5.10589C38.0559 -0.104232 50.0957 9.03757 50.0957 9.03757C57.0851 5.17981 66.3692 3 76.4767 3" stroke="#5A3F26" stroke-width="4.56989" stroke-linecap="round"/>
<path d="M100.349 39.4524H93.9702C90.8262 39.4524 95.0997 38.078 97.1143 38.0781C99.1289 38.0782 103.584 39.4524 100.349 39.4524Z" stroke="#5A3F26" stroke-width="4.56989" stroke-linecap="round"/>
<path d="M58.943 39.4524H52.564C49.42 39.4524 53.6934 38.078 55.708 38.0781C57.7226 38.0782 62.178 39.4524 58.943 39.4524Z" stroke="#5A3F26" stroke-width="4.56989" stroke-linecap="round"/>
<path d="M76.5013 146.656C78.3171 146.656 112.819 128.258 112.819 102.5C112.819 89.6215 103.739 80.582 92.8442 80.4223C87.3965 80.3424 81.9489 82.26 76.5012 89.6196C71.0536 82.26 65.5117 80.4223 60.1583 80.4223C49.263 80.4223 40.1836 89.6215 40.1836 102.5C40.1836 128.258 74.6854 146.656 76.5013 146.656Z" fill="#FF2226"/>
<path d="M76.5012 89.6196L75.1184 90.6432C75.4429 91.0815 75.9559 91.3401 76.5012 91.3401C77.0466 91.3401 77.5596 91.0815 77.8841 90.6432L76.5012 89.6196ZM76.5013 146.656V144.936C76.7146 144.936 76.8329 144.985 76.7321 144.955C76.6798 144.939 76.5827 144.906 76.4333 144.846C76.1375 144.728 75.7177 144.539 75.183 144.274C74.1182 143.747 72.6658 142.952 70.956 141.91C67.5362 139.826 63.1379 136.779 58.8004 132.948C50.0517 125.221 41.904 114.617 41.904 102.5H40.1836H38.4632C38.4632 116.141 47.5664 127.616 56.5225 135.527C61.0375 139.515 65.6051 142.678 69.1651 144.848C70.9452 145.933 72.4861 146.778 73.6557 147.357C74.2383 147.646 74.7459 147.877 75.155 148.041C75.358 148.122 75.5577 148.195 75.7425 148.251C75.8788 148.292 76.1744 148.377 76.5013 148.377V146.656ZM112.819 102.5H111.098C111.098 114.617 102.951 125.221 94.2021 132.948C89.8646 136.779 85.4663 139.826 82.0465 141.91C80.3367 142.952 78.8843 143.747 77.8195 144.274C77.2848 144.539 76.865 144.728 76.5692 144.846C76.4198 144.906 76.3227 144.939 76.2704 144.955C76.1696 144.985 76.2879 144.936 76.5013 144.936V146.656V148.377C76.8281 148.377 77.1237 148.292 77.26 148.251C77.4448 148.195 77.6445 148.122 77.8476 148.041C78.2566 147.877 78.7642 147.646 79.3468 147.357C80.5164 146.778 82.0573 145.933 83.8374 144.848C87.3974 142.678 91.965 139.515 96.48 135.527C105.436 127.616 114.539 116.141 114.539 102.5H112.819ZM40.1836 102.5H41.904C41.904 90.45 50.3304 82.1427 60.1583 82.1427V80.4223V78.7019C48.1956 78.7019 38.4632 88.793 38.4632 102.5H40.1836ZM60.1583 80.4223V82.1427C62.6279 82.1427 65.0743 82.5642 67.5198 83.7973C69.9707 85.0331 72.5218 87.1353 75.1184 90.6432L76.5012 89.6196L77.8841 88.5961C75.033 84.7444 72.0893 82.2479 69.069 80.7249C66.0434 79.1993 63.0421 78.7019 60.1583 78.7019V80.4223ZM76.5012 89.6196L77.8841 90.6432C80.4868 87.127 83.0177 85.0067 85.4544 83.7637C87.8819 82.5255 90.3179 82.1059 92.819 82.1425L92.8442 80.4223L92.8694 78.702C89.9228 78.6588 86.9111 79.1581 83.891 80.6986C80.8801 82.2344 77.9634 84.7527 75.1184 88.5961L76.5012 89.6196ZM92.8442 80.4223L92.819 82.1425C102.688 82.2872 111.098 90.4739 111.098 102.5H112.819H114.539C114.539 88.7691 104.791 78.8768 92.8694 78.702L92.8442 80.4223Z" fill="#E60004"/>
<path d="M123.628 101.342C127.119 104.518 133.068 106.271 133.068 106.271L133.914 108.791L132.435 112.574L129.478 118.19L121.402 122.201H116.739C116.739 122.201 107.028 122.086 104.341 112.574C102.495 106.038 104.032 93.6807 110.775 93.7779C115.674 93.8485 119.99 98.0343 123.628 101.342Z" fill="url(#paint0_linear_25_1255)"/>
<path d="M133.067 106.271C133.067 106.271 127.119 104.518 123.627 101.342C119.989 98.0344 115.673 93.8486 110.774 93.778C104.031 93.6808 101.991 104.433 103.837 110.969C106.523 120.482 115.893 122.774 115.893 122.774" stroke="#5A3F26" stroke-width="4.56989" stroke-linecap="round"/>
<path d="M29.431 101.342C25.9392 104.518 19.9905 106.271 19.9905 106.271L19.1448 108.791L20.6234 112.574L23.5807 118.19L31.6563 122.201H36.3197C36.3197 122.201 46.0305 122.086 48.7174 112.574C50.5634 106.038 49.0268 93.6807 42.2838 93.7779C37.3845 93.8485 33.0684 98.0343 29.431 101.342Z" fill="url(#paint1_linear_25_1255)"/>
<path d="M19.9932 106.271C19.9932 106.271 25.9419 104.518 29.4337 101.342C33.0711 98.0344 37.3872 93.8486 42.2864 93.778C49.0295 93.6808 51.07 104.433 49.224 110.969C46.5372 120.482 37.1674 122.774 37.1674 122.774" stroke="#5A3F26" stroke-width="4.56989" stroke-linecap="round"/>
<path d="M76.4701 69.1321C76.5769 69.2762 79.5695 73.4242 82.6122 71.6536M76.4701 69.1321C76.3596 69.2762 73.3708 73.4242 70.3281 71.6536M76.4701 69.1321V56.5247M82.6122 51.3672L76.4701 56.5247M76.4701 56.5247L70.3281 51.3672" stroke="#5A3F26" stroke-width="4.56989" stroke-linecap="round"/>
<defs>
<filter id="filter0_f_25_1255" x="33.4854" y="2.09669" width="18.6074" height="17.6587" filterUnits="userSpaceOnUse" color-interpolation-filters="sRGB">
<feFlood flood-opacity="0" result="BackgroundImageFix"/>
<feBlend mode="normal" in="SourceGraphic" in2="BackgroundImageFix" result="shape"/>
<feGaussianBlur stdDeviation="0.451657" result="effect1_foregroundBlur_25_1255"/>
</filter>
<filter id="filter1_f_25_1255" x="100.792" y="2.09669" width="18.6074" height="17.6587" filterUnits="userSpaceOnUse" color-interpolation-filters="sRGB">
<feFlood flood-opacity="0" result="BackgroundImageFix"/>
<feBlend mode="normal" in="SourceGraphic" in2="BackgroundImageFix" result="shape"/>
<feGaussianBlur stdDeviation="0.451657" result="effect1_foregroundBlur_25_1255"/>
</filter>
<filter id="filter2_f_25_1255" x="56.6934" y="36.2598" width="39.5556" height="45.6247" filterUnits="userSpaceOnUse" color-interpolation-filters="sRGB">
<feFlood flood-opacity="0" result="BackgroundImageFix"/>
<feBlend mode="normal" in="SourceGraphic" in2="BackgroundImageFix" result="shape"/>
<feGaussianBlur stdDeviation="0.903314" result="effect1_foregroundBlur_25_1255"/>
</filter>
<linearGradient id="paint0_linear_25_1255" x1="115.488" y1="102.946" x2="125.584" y2="114.446" gradientUnits="userSpaceOnUse">
<stop stop-color="#88624E"/>
<stop offset="1" stop-color="#C99875"/>
</linearGradient>
<linearGradient id="paint1_linear_25_1255" x1="37.5708" y1="102.946" x2="27.4747" y2="114.446" gradientUnits="userSpaceOnUse">
<stop stop-color="#88624E"/>
<stop offset="1" stop-color="#C99875"/>
</linearGradient>
</defs>
</svg>
