<svg width="83" height="30" viewBox="0 0 83 30" fill="none" xmlns="http://www.w3.org/2000/svg">
<path d="M16.725 24.7836C15.9006 24.9691 15.0556 25.0927 14.19 25.1546C13.345 25.237 12.5103 25.2782 11.6859 25.2782C10.8821 25.2782 10.2535 25.2576 9.80006 25.2164C9.36725 25.1752 8.79017 25.0721 8.06882 24.9073C7.34747 24.7424 6.68795 24.5157 6.09026 24.2271C5.49257 23.9386 4.85366 23.5161 4.17353 22.9596C3.51401 22.4031 2.95754 21.7436 2.50412 20.981C1.45301 19.2086 0.92745 16.9209 0.92745 14.1179C0.92745 12.2424 1.21599 10.5833 1.79307 9.1406C2.39076 7.6979 3.10181 6.58496 3.92621 5.80178C4.77122 5.0186 5.72958 4.38999 6.8013 3.91596C8.53254 3.13278 10.2741 2.74119 12.0259 2.74119C14.5404 2.74119 16.3437 2.94729 17.4361 3.35949C17.9307 3.54498 18.3738 3.83352 18.7654 4.22511C19.157 4.6167 19.3528 5.18348 19.3528 5.92544C19.3528 6.6674 19.1673 7.60515 18.7963 8.7387C18.446 9.87226 17.9307 10.439 17.2506 10.439C17.0445 10.439 16.2819 10.2742 14.9629 9.94439C13.6438 9.61463 12.7473 9.44975 12.2733 9.44975C11.5519 9.44975 10.9336 9.85165 10.4184 10.6554C9.92372 11.4592 9.6764 12.6031 9.6764 14.087C9.6764 15.5709 9.8928 16.7251 10.3256 17.5495C10.779 18.3739 11.3664 18.7861 12.0878 18.7861C12.603 18.7861 13.5305 18.58 14.8701 18.1678C16.2304 17.735 17.0239 17.5186 17.2506 17.5186C17.8895 17.5186 18.3841 18.106 18.7345 19.2807C19.1055 20.4555 19.291 21.4036 19.291 22.1249C19.291 22.8463 19.0643 23.4233 18.6108 23.8561C18.178 24.2683 17.5494 24.5775 16.725 24.7836ZM21.37 28.7407V9.07877C21.37 8.64596 21.9471 8.20284 23.1012 7.74942C24.2554 7.296 25.5023 7.06929 26.842 7.06929C27.4603 7.06929 27.9446 7.14143 28.295 7.2857C28.6453 7.42997 28.8617 7.57424 28.9442 7.71851C29.0266 7.86278 29.1812 8.48108 29.4079 9.57341H29.6552C29.6964 9.38792 29.8819 9.09938 30.2117 8.70779C30.5415 8.3162 30.8712 7.99674 31.201 7.74942C31.5513 7.5021 32.046 7.2857 32.6849 7.10021C33.3238 6.89411 34.0658 6.79106 34.9108 6.79106C35.7764 6.79106 36.5596 6.98685 37.2603 7.37844C37.9611 7.74942 38.4763 8.19254 38.8061 8.70779C39.1564 9.20243 39.4244 9.84134 39.6099 10.6245C39.816 11.3871 39.9293 12.0054 39.9499 12.4794C39.9911 12.9328 40.0118 13.6027 40.0118 14.4889C40.0118 15.3545 39.9808 16.2201 39.919 17.0858C39.8572 17.9308 39.7438 18.7964 39.5789 19.6826C39.4141 20.5688 39.177 21.3314 38.8679 21.9703C38.5587 22.6092 38.1672 23.1863 37.6931 23.7016C36.7451 24.7321 35.3539 25.2473 33.5196 25.2473C32.8601 25.2473 32.2727 25.1546 31.7574 24.9691C31.2628 24.763 30.8918 24.526 30.6445 24.258C30.1293 23.7016 29.8304 23.2069 29.748 22.7741L29.7171 22.465H29.4697L29.9025 25.2473V28.7407C29.9025 28.9674 29.3049 29.1426 28.1095 29.2663C26.9347 29.4105 25.7187 29.4827 24.4615 29.4827C23.2249 29.4827 22.4005 29.4208 21.9883 29.2972C21.5761 29.1941 21.37 29.0086 21.37 28.7407ZM31.6338 15.9419C31.6338 14.1901 31.541 12.9638 31.3555 12.263C31.1701 11.5623 30.8918 11.2119 30.5208 11.2119C30.1499 11.2119 29.8819 11.418 29.7171 11.8302V19.9299C29.7171 20.4658 29.9953 20.7337 30.5518 20.7337C31.2731 20.7337 31.6338 19.1365 31.6338 15.9419Z" fill="#5A3F26"/>
<path d="M51.3911 25H44.6207C43.5902 25 42.8998 24.9279 42.5494 24.7836C42.1991 24.6393 42.0239 24.4126 42.0239 24.1035V4.22511C42.0239 3.23583 45.002 2.74119 50.9583 2.74119C54.3796 2.74119 56.7394 3.07095 58.0379 3.73047C59.3569 4.4106 60.2019 5.27622 60.5729 6.32733C60.779 6.94563 60.882 7.66698 60.882 8.49138C60.882 10.099 60.6038 11.3047 60.0473 12.1084C59.5115 12.9122 58.9241 13.3657 58.2852 13.4687C59.2539 13.6748 60.0576 14.1488 60.6966 14.8908C61.3355 15.6328 61.6549 16.89 61.6549 18.6624C61.6549 20.7234 61.0263 22.2486 59.7691 23.2378C58.6768 24.1035 57.0074 24.6496 54.7609 24.8763C53.8128 24.9588 52.6896 25 51.3911 25ZM51.422 11.5211C52.4732 11.5211 52.9987 10.8203 52.9987 9.41884C52.9987 8.71809 52.8544 8.20284 52.5659 7.87308C52.298 7.52271 51.9888 7.34753 51.6385 7.34753H50.6492V11.5211H51.422ZM50.6492 20.3937H51.422C52.4732 20.3937 52.9987 19.6929 52.9987 18.2914C52.9987 17.5907 52.8544 17.0755 52.5659 16.7457C52.298 16.3953 51.9888 16.2201 51.6385 16.2201H50.6492V20.3937ZM72.0139 24.258C72.0139 24.4847 71.4368 24.6702 70.2826 24.8145C69.1285 24.9382 67.9228 25 66.6656 25C65.4083 25 64.5943 24.9485 64.2233 24.8454C63.8523 24.7218 63.6668 24.526 63.6668 24.258V2.86485C63.6668 2.41143 64.2439 1.96832 65.398 1.53551C66.5728 1.1027 67.83 0.886292 69.1697 0.886292C71.0658 0.886292 72.0139 1.36032 72.0139 2.30838V13.8706H72.4158C73.405 9.1509 74.1367 6.79106 74.6107 6.79106C75.8061 6.79106 77.2488 7.06929 78.9388 7.62576C80.6288 8.18223 81.4738 8.80053 81.4738 9.48066C81.4738 9.97531 81.0616 10.9234 80.2372 12.3248C79.4128 13.7263 78.5575 14.8702 77.6713 15.7564C80.6185 19.2807 82.0921 21.3726 82.0921 22.0322C82.0921 22.6505 81.1544 23.4027 79.2789 24.289C77.4034 25.1752 76.0843 25.6183 75.3218 25.6183C74.9508 25.6183 74.5592 25.1752 74.147 24.289C73.7348 23.3821 73.2917 22.0322 72.8176 20.2391L72.0139 21.1975V24.258Z" fill="#88624E"/>
</svg>
