<svg width="166" height="30" viewBox="0 0 166 30" fill="none" xmlns="http://www.w3.org/2000/svg">
<path d="M16.725 24.7836C15.9006 24.9691 15.0556 25.0927 14.19 25.1546C13.345 25.237 12.5103 25.2782 11.6859 25.2782C10.8821 25.2782 10.2535 25.2576 9.80006 25.2164C9.36725 25.1752 8.79017 25.0721 8.06882 24.9073C7.34747 24.7424 6.68795 24.5157 6.09026 24.2271C5.49257 23.9386 4.85366 23.5161 4.17353 22.9596C3.51401 22.4031 2.95754 21.7436 2.50412 20.981C1.45301 19.2086 0.92745 16.9209 0.92745 14.1179C0.92745 12.2424 1.21599 10.5833 1.79307 9.1406C2.39076 7.6979 3.10181 6.58496 3.92621 5.80178C4.77122 5.0186 5.72958 4.38999 6.8013 3.91596C8.53254 3.13278 10.2741 2.74119 12.0259 2.74119C14.5404 2.74119 16.3437 2.94729 17.4361 3.35949C17.9307 3.54498 18.3738 3.83352 18.7654 4.22511C19.157 4.6167 19.3528 5.18348 19.3528 5.92544C19.3528 6.6674 19.1673 7.60515 18.7963 8.7387C18.446 9.87226 17.9307 10.439 17.2506 10.439C17.0445 10.439 16.2819 10.2742 14.9629 9.94439C13.6438 9.61463 12.7473 9.44975 12.2733 9.44975C11.5519 9.44975 10.9336 9.85165 10.4184 10.6554C9.92372 11.4592 9.6764 12.6031 9.6764 14.087C9.6764 15.5709 9.8928 16.7251 10.3256 17.5495C10.779 18.3739 11.3664 18.7861 12.0878 18.7861C12.603 18.7861 13.5305 18.58 14.8701 18.1678C16.2304 17.735 17.0239 17.5186 17.2506 17.5186C17.8895 17.5186 18.3841 18.106 18.7345 19.2807C19.1055 20.4555 19.291 21.4036 19.291 22.1249C19.291 22.8463 19.0643 23.4233 18.6108 23.8561C18.178 24.2683 17.5494 24.5775 16.725 24.7836ZM27.2439 25.2782C25.3683 25.2782 23.8947 24.8351 22.823 23.9489C22.3902 23.5779 22.0089 23.0317 21.6792 22.3104C21.37 21.589 21.2154 20.744 21.2154 19.7754C21.2154 18.8067 21.4421 17.9617 21.8956 17.2403C22.3696 16.519 22.9364 15.9625 23.5959 15.5709C24.2554 15.1793 25.0283 14.8599 25.9145 14.6126C27.2542 14.2622 28.7278 14.087 30.3354 14.087H31.3555C31.3555 13.242 31.067 12.6443 30.4899 12.2939C30.2426 12.1497 29.8613 12.0775 29.3461 12.0775C28.8514 12.0775 28.2434 12.2115 27.5221 12.4794C26.8213 12.7474 26.234 13.0256 25.7599 13.3141C25.2859 13.5821 24.9664 13.716 24.8016 13.716C24.4306 13.716 23.9256 13.2317 23.2867 12.263C22.6478 11.2737 22.3284 10.3772 22.3284 9.57341C22.3284 9.30548 22.7097 8.95511 23.4722 8.5223C24.2348 8.08949 25.3065 7.6979 26.6874 7.34753C28.0889 6.97655 29.4491 6.79106 30.7682 6.79106C32.0872 6.79106 33.2208 6.90441 34.1688 7.13112C35.1375 7.33722 35.9207 7.59485 36.5184 7.904C37.1367 8.21315 37.6519 8.62535 38.0641 9.1406C38.4969 9.65585 38.8164 10.1196 39.0225 10.5318C39.2492 10.944 39.4141 11.4798 39.5171 12.1394C39.6614 12.9019 39.7335 13.8397 39.7335 14.9526V24.258C39.7335 24.4847 39.177 24.6702 38.0641 24.8145C36.9718 24.9382 35.8794 25 34.7871 25C33.7154 25 33.0147 24.9691 32.6849 24.9073C32.3757 24.8454 32.1903 24.7733 32.1284 24.6908C32.0666 24.6084 32.0151 24.4641 31.9738 24.258L31.7265 22.4959H31.4792C30.964 24.3508 29.5522 25.2782 27.2439 25.2782ZM31.3865 20.1463V16.5293C30.8506 16.5293 30.4178 16.756 30.088 17.2094C29.7583 17.6628 29.5934 18.1781 29.5934 18.7552C29.5934 20.1154 29.9025 20.7956 30.5208 20.7956C30.7888 20.7956 30.9949 20.7337 31.1391 20.6101C31.304 20.4658 31.3865 20.3112 31.3865 20.1463ZM41.8995 28.7407V9.07877C41.8995 8.64596 42.4766 8.20284 43.6307 7.74942C44.7849 7.296 46.0318 7.06929 47.3715 7.06929C47.9898 7.06929 48.4741 7.14143 48.8245 7.2857C49.1748 7.42997 49.3912 7.57424 49.4737 7.71851C49.5561 7.86278 49.7107 8.48108 49.9374 9.57341H50.1847C50.2259 9.38792 50.4114 9.09938 50.7412 8.70779C51.071 8.3162 51.4007 7.99674 51.7305 7.74942C52.0808 7.5021 52.5755 7.2857 53.2144 7.10021C53.8533 6.89411 54.5953 6.79106 55.4403 6.79106C56.3059 6.79106 57.0891 6.98685 57.7898 7.37844C58.4906 7.74942 59.0058 8.19254 59.3356 8.70779C59.6859 9.20243 59.9539 9.84134 60.1394 10.6245C60.3455 11.3871 60.4588 12.0054 60.4794 12.4794C60.5206 12.9328 60.5413 13.6027 60.5413 14.4889C60.5413 15.3545 60.5103 16.2201 60.4485 17.0858C60.3867 17.9308 60.2733 18.7964 60.1084 19.6826C59.9436 20.5688 59.7065 21.3314 59.3974 21.9703C59.0882 22.6092 58.6967 23.1863 58.2226 23.7016C57.2746 24.7321 55.8834 25.2473 54.0491 25.2473C53.3896 25.2473 52.8022 25.1546 52.2869 24.9691C51.7923 24.763 51.4213 24.526 51.174 24.258C50.6588 23.7016 50.3599 23.2069 50.2775 22.7741L50.2466 22.465H49.9992L50.432 25.2473V28.7407C50.432 28.9674 49.8344 29.1426 48.639 29.2663C47.4642 29.4105 46.2482 29.4827 44.991 29.4827C43.7544 29.4827 42.93 29.4208 42.5178 29.2972C42.1056 29.1941 41.8995 29.0086 41.8995 28.7407ZM52.1633 15.9419C52.1633 14.1901 52.0705 12.9638 51.885 12.263C51.6996 11.5623 51.4213 11.2119 51.0503 11.2119C50.6794 11.2119 50.4114 11.418 50.2466 11.8302V19.9299C50.2466 20.4658 50.5248 20.7337 51.0813 20.7337C51.8026 20.7337 52.1633 19.1365 52.1633 15.9419ZM72.8172 22.9905V21.1665H72.5698C72.4668 21.2696 72.3122 21.4036 72.1061 21.5684C71.9 21.7333 71.4157 21.9497 70.6531 22.2176C69.8905 22.4856 69.0352 22.6195 68.0872 22.6195C67.1597 22.6195 66.3353 22.4753 65.614 22.1867C64.9132 21.8776 64.3568 21.4757 63.9446 20.981C63.5324 20.4658 63.2129 19.7857 62.9862 18.9407C62.5946 17.601 62.3988 15.7049 62.3988 13.2523V8.98603C62.3988 8.55321 63.0068 8.13071 64.2228 7.71851C65.4388 7.2857 66.7166 7.06929 68.0563 7.06929C69.8493 7.06929 70.7459 7.53302 70.7459 8.46047V12.3558C70.7459 16.4778 71.0756 18.5388 71.7351 18.5388C72.1267 18.5388 72.3225 18.2605 72.3225 17.7041V8.98603C72.3225 8.55321 72.9717 8.13071 74.2702 7.71851C75.5686 7.2857 76.9598 7.06929 78.4437 7.06929C79.9276 7.06929 80.6696 7.47119 80.6696 8.27498V22.8978C80.6696 27.4938 77.5575 29.7918 71.3332 29.7918C68.0563 29.7918 65.8304 29.4724 64.6556 28.8335C64.1404 28.5449 63.8827 28.2461 63.8827 27.9369C63.8827 27.4423 64.0888 26.6076 64.501 25.4328C64.9132 24.2786 65.2945 23.7016 65.6449 23.7016C65.7273 23.7016 66.0159 23.7634 66.5105 23.8871C68.0356 24.2993 69.3032 24.5054 70.313 24.5054C71.3435 24.5054 72.0134 24.392 72.3225 24.1653C72.6523 23.9386 72.8172 23.547 72.8172 22.9905Z" fill="#5A3F26"/>
<path d="M92.3596 25H85.5892C84.5587 25 83.8682 24.9279 83.5179 24.7836C83.1675 24.6393 82.9923 24.4126 82.9923 24.1035V4.22511C82.9923 3.23583 85.9705 2.74119 91.9267 2.74119C95.348 2.74119 97.7079 3.07095 99.0063 3.73047C100.325 4.4106 101.17 5.27622 101.541 6.32733C101.747 6.94563 101.85 7.66698 101.85 8.49138C101.85 10.099 101.572 11.3047 101.016 12.1084C100.48 12.9122 99.8925 13.3657 99.2536 13.4687C100.222 13.6748 101.026 14.1488 101.665 14.8908C102.304 15.6328 102.623 16.89 102.623 18.6624C102.623 20.7234 101.995 22.2486 100.738 23.2378C99.6452 24.1035 97.9758 24.6496 95.7293 24.8763C94.7812 24.9588 93.658 25 92.3596 25ZM92.3905 11.5211C93.4416 11.5211 93.9671 10.8203 93.9671 9.41884C93.9671 8.71809 93.8229 8.20284 93.5343 7.87308C93.2664 7.52271 92.9572 7.34753 92.6069 7.34753H91.6176V11.5211H92.3905ZM91.6176 20.3937H92.3905C93.4416 20.3937 93.9671 19.6929 93.9671 18.2914C93.9671 17.5907 93.8229 17.0755 93.5343 16.7457C93.2664 16.3953 92.9572 16.2201 92.6069 16.2201H91.6176V20.3937ZM114.157 25.2782C112.611 25.2782 111.282 25.1443 110.169 24.8763C109.056 24.6084 108.046 24.1344 107.139 23.4542C105.264 22.094 104.326 19.559 104.326 15.8492C104.326 12.5516 105.284 10.1917 107.201 8.76962C108.994 7.45058 111.313 6.79106 114.157 6.79106C115.373 6.79106 116.414 6.85289 117.279 6.97655C118.145 7.0796 119.021 7.31661 119.907 7.6876C120.814 8.05857 121.535 8.56352 122.071 9.20243C122.628 9.84134 123.081 10.7276 123.432 11.8611C123.782 12.9741 123.957 14.3034 123.957 15.8492C123.957 18.9819 123.071 21.3417 121.298 22.9287C119.526 24.4951 117.146 25.2782 114.157 25.2782ZM113.075 19.2498C113.219 19.9918 113.364 20.4349 113.508 20.5792C113.673 20.7234 113.879 20.7956 114.126 20.7956C114.394 20.7956 114.6 20.7234 114.744 20.5792C114.909 20.4349 115.054 19.9918 115.177 19.2498C115.322 18.5078 115.394 17.5804 115.394 16.4675C115.394 15.3339 115.363 14.4683 115.301 13.8706C115.26 13.2523 115.198 12.7783 115.115 12.4485C115.054 12.1187 114.961 11.8611 114.837 11.6756C114.652 11.4077 114.425 11.2737 114.157 11.2737C113.91 11.2737 113.704 11.3562 113.539 11.5211C113.374 11.6653 113.219 12.1187 113.075 12.8813C112.931 13.6233 112.859 14.6847 112.859 16.0656C112.859 17.4464 112.931 18.5078 113.075 19.2498ZM135.321 25.2782C133.775 25.2782 132.445 25.1443 131.333 24.8763C130.22 24.6084 129.21 24.1344 128.303 23.4542C126.427 22.094 125.49 19.559 125.49 15.8492C125.49 12.5516 126.448 10.1917 128.365 8.76962C130.158 7.45058 132.476 6.79106 135.321 6.79106C136.537 6.79106 137.577 6.85289 138.443 6.97655C139.309 7.0796 140.185 7.31661 141.071 7.6876C141.978 8.05857 142.699 8.56352 143.235 9.20243C143.791 9.84134 144.245 10.7276 144.595 11.8611C144.945 12.9741 145.121 14.3034 145.121 15.8492C145.121 18.9819 144.234 21.3417 142.462 22.9287C140.689 24.4951 138.309 25.2782 135.321 25.2782ZM134.239 19.2498C134.383 19.9918 134.527 20.4349 134.671 20.5792C134.836 20.7234 135.042 20.7956 135.29 20.7956C135.558 20.7956 135.764 20.7234 135.908 20.5792C136.073 20.4349 136.217 19.9918 136.341 19.2498C136.485 18.5078 136.557 17.5804 136.557 16.4675C136.557 15.3339 136.526 14.4683 136.464 13.8706C136.423 13.2523 136.361 12.7783 136.279 12.4485C136.217 12.1187 136.124 11.8611 136.001 11.6756C135.815 11.4077 135.588 11.2737 135.321 11.2737C135.073 11.2737 134.867 11.3562 134.702 11.5211C134.537 11.6653 134.383 12.1187 134.239 12.8813C134.094 13.6233 134.022 14.6847 134.022 16.0656C134.022 17.4464 134.094 18.5078 134.239 19.2498ZM155.309 24.258C155.309 24.4847 154.732 24.6702 153.578 24.8145C152.424 24.9382 151.218 25 149.961 25C148.704 25 147.89 24.9485 147.519 24.8454C147.148 24.7218 146.962 24.526 146.962 24.258V2.86485C146.962 2.41143 147.539 1.96832 148.693 1.53551C149.868 1.1027 151.125 0.886292 152.465 0.886292C154.361 0.886292 155.309 1.36032 155.309 2.30838V13.8706H155.711C156.7 9.1509 157.432 6.79106 157.906 6.79106C159.102 6.79106 160.544 7.06929 162.234 7.62576C163.924 8.18223 164.769 8.80053 164.769 9.48066C164.769 9.97531 164.357 10.9234 163.533 12.3248C162.708 13.7263 161.853 14.8702 160.967 15.7564C163.914 19.2807 165.388 21.3726 165.388 22.0322C165.388 22.6505 164.45 23.4027 162.574 24.289C160.699 25.1752 159.38 25.6183 158.617 25.6183C158.246 25.6183 157.855 25.1752 157.442 24.289C157.03 23.3821 156.587 22.0322 156.113 20.2391L155.309 21.1975V24.258Z" fill="#88624E"/>
</svg>
