<svg width="21" height="22" viewBox="0 0 21 22" fill="none" xmlns="http://www.w3.org/2000/svg">
<path d="M7.875 16.5C7.875 17.2293 8.15156 17.9288 8.64384 18.4445C9.13613 18.9603 9.80381 19.25 10.5 19.25C11.1962 19.25 11.8639 18.9603 12.3562 18.4445C12.8484 17.9288 13.125 17.2293 13.125 16.5" stroke="#5A3F26" stroke-width="2" stroke-linecap="round" stroke-linejoin="round"/>
<path d="M4.59371 8.9375C4.59371 7.29647 5.21597 5.72266 6.32361 4.56228C7.43125 3.4019 8.93352 2.75 10.5 2.75C12.0664 2.75 13.5687 3.4019 14.6763 4.56228C15.7839 5.72266 16.4062 7.29647 16.4062 8.9375C16.4062 12.0158 17.0871 14.4891 17.6285 15.4688C17.686 15.5731 17.7163 15.6914 17.7164 15.8119C17.7165 15.9324 17.6864 16.0508 17.6291 16.1552C17.5717 16.2596 17.4892 16.3465 17.3898 16.407C17.2903 16.4675 17.1775 16.4996 17.0625 16.5H3.93746C3.8226 16.4993 3.70993 16.467 3.61072 16.4063C3.5115 16.3457 3.42922 16.2589 3.37209 16.1545C3.31496 16.0501 3.28498 15.9318 3.28516 15.8115C3.28533 15.6911 3.31565 15.573 3.37308 15.4688C3.91367 14.4891 4.59371 12.0149 4.59371 8.9375Z" stroke="#5A3F26" stroke-width="2" stroke-linecap="round" stroke-linejoin="round"/>
</svg>
