<svg width="207" height="37" viewBox="0 0 207 37" fill="none" xmlns="http://www.w3.org/2000/svg">
<path d="M57.725 30.7836C56.9006 30.9691 56.0556 31.0927 55.19 31.1546C54.345 31.237 53.5103 31.2782 52.6859 31.2782C51.8821 31.2782 51.2535 31.2576 50.8001 31.2164C50.3672 31.1752 49.7902 31.0721 49.0688 30.9073C48.3475 30.7424 47.6879 30.5157 47.0903 30.2271C46.4926 29.9386 45.8537 29.5161 45.1735 28.9596C44.514 28.4031 43.9575 27.7436 43.5041 26.981C42.453 25.2086 41.9275 22.9209 41.9275 20.1179C41.9275 18.2424 42.216 16.5833 42.7931 15.1406C43.3908 13.6979 44.1018 12.585 44.9262 11.8018C45.7712 11.0186 46.7296 10.39 47.8013 9.91596C49.5325 9.13278 51.2741 8.74119 53.0259 8.74119C55.5404 8.74119 57.3437 8.94729 58.4361 9.35949C58.9307 9.54498 59.3738 9.83352 59.7654 10.2251C60.157 10.6167 60.3528 11.1835 60.3528 11.9254C60.3528 12.6674 60.1673 13.6052 59.7963 14.7387C59.446 15.8723 58.9307 16.439 58.2506 16.439C58.0445 16.439 57.2819 16.2742 55.9629 15.9444C54.6438 15.6146 53.7473 15.4498 53.2733 15.4498C52.5519 15.4498 51.9336 15.8516 51.4184 16.6554C50.9237 17.4592 50.6764 18.6031 50.6764 20.087C50.6764 21.5709 50.8928 22.7251 51.3256 23.5495C51.779 24.3739 52.3664 24.7861 53.0878 24.7861C53.603 24.7861 54.5305 24.58 55.8701 24.1678C57.2304 23.735 58.0239 23.5186 58.2506 23.5186C58.8895 23.5186 59.3841 24.106 59.7345 25.2807C60.1055 26.4555 60.291 27.4036 60.291 28.1249C60.291 28.8463 60.0643 29.4233 59.6108 29.8561C59.178 30.2683 58.5494 30.5775 57.725 30.7836ZM68.2439 31.2782C66.3683 31.2782 64.8947 30.8351 63.823 29.9489C63.3902 29.5779 63.0089 29.0317 62.6792 28.3104C62.37 27.589 62.2154 26.744 62.2154 25.7754C62.2154 24.8067 62.4421 23.9617 62.8956 23.2403C63.3696 22.519 63.9364 21.9625 64.5959 21.5709C65.2554 21.1793 66.0283 20.8599 66.9145 20.6126C68.2542 20.2622 69.7278 20.087 71.3354 20.087H72.3555C72.3555 19.242 72.067 18.6443 71.4899 18.2939C71.2426 18.1497 70.8613 18.0775 70.3461 18.0775C69.8514 18.0775 69.2434 18.2115 68.5221 18.4794C67.8213 18.7474 67.234 19.0256 66.7599 19.3141C66.2859 19.5821 65.9664 19.716 65.8016 19.716C65.4306 19.716 64.9256 19.2317 64.2867 18.263C63.6478 17.2737 63.3284 16.3772 63.3284 15.5734C63.3284 15.3055 63.7097 14.9551 64.4722 14.5223C65.2348 14.0895 66.3065 13.6979 67.6874 13.3475C69.0889 12.9765 70.4491 12.7911 71.7682 12.7911C73.0872 12.7911 74.2208 12.9044 75.1688 13.1311C76.1375 13.3372 76.9207 13.5948 77.5184 13.904C78.1367 14.2131 78.6519 14.6253 79.0641 15.1406C79.4969 15.6558 79.8164 16.1196 80.0225 16.5318C80.2492 16.944 80.4141 17.4798 80.5171 18.1394C80.6614 18.9019 80.7335 19.8397 80.7335 20.9526V30.258C80.7335 30.4847 80.177 30.6702 79.0641 30.8145C77.9718 30.9382 76.8794 31 75.7871 31C74.7154 31 74.0147 30.9691 73.6849 30.9073C73.3757 30.8454 73.1903 30.7733 73.1284 30.6908C73.0666 30.6084 73.0151 30.4641 72.9738 30.258L72.7265 28.4959H72.4792C71.964 30.3508 70.5522 31.2782 68.2439 31.2782ZM72.3865 26.1463V22.5293C71.8506 22.5293 71.4178 22.756 71.088 23.2094C70.7583 23.6628 70.5934 24.1781 70.5934 24.7552C70.5934 26.1154 70.9025 26.7956 71.5208 26.7956C71.7888 26.7956 71.9949 26.7337 72.1391 26.6101C72.304 26.4658 72.3865 26.3112 72.3865 26.1463ZM82.8995 34.7407V15.0788C82.8995 14.646 83.4766 14.2028 84.6307 13.7494C85.7849 13.296 87.0318 13.0693 88.3715 13.0693C88.9898 13.0693 89.4741 13.1414 89.8245 13.2857C90.1748 13.43 90.3912 13.5742 90.4737 13.7185C90.5561 13.8628 90.7107 14.4811 90.9374 15.5734H91.1847C91.2259 15.3879 91.4114 15.0994 91.7412 14.7078C92.071 14.3162 92.4007 13.9967 92.7305 13.7494C93.0808 13.5021 93.5755 13.2857 94.2144 13.1002C94.8533 12.8941 95.5953 12.7911 96.4403 12.7911C97.3059 12.7911 98.0891 12.9869 98.7898 13.3784C99.4906 13.7494 100.006 14.1925 100.336 14.7078C100.686 15.2024 100.954 15.8413 101.139 16.6245C101.345 17.3871 101.459 18.0054 101.479 18.4794C101.521 18.9328 101.541 19.6027 101.541 20.4889C101.541 21.3545 101.51 22.2201 101.449 23.0858C101.387 23.9308 101.273 24.7964 101.108 25.6826C100.944 26.5688 100.707 27.3314 100.397 27.9703C100.088 28.6092 99.6967 29.1863 99.2226 29.7016C98.2746 30.7321 96.8834 31.2473 95.0491 31.2473C94.3896 31.2473 93.8022 31.1546 93.2869 30.9691C92.7923 30.763 92.4213 30.526 92.174 30.258C91.6588 29.7016 91.3599 29.2069 91.2775 28.7741L91.2466 28.465H90.9992L91.432 31.2473V34.7407C91.432 34.9674 90.8344 35.1426 89.639 35.2663C88.4642 35.4105 87.2482 35.4827 85.991 35.4827C84.7544 35.4827 83.93 35.4208 83.5178 35.2972C83.1056 35.1941 82.8995 35.0086 82.8995 34.7407ZM93.1633 21.9419C93.1633 20.1901 93.0705 18.9638 92.885 18.263C92.6996 17.5623 92.4213 17.2119 92.0503 17.2119C91.6794 17.2119 91.4114 17.418 91.2466 17.8302V25.9299C91.2466 26.4658 91.5248 26.7337 92.0813 26.7337C92.8026 26.7337 93.1633 25.1365 93.1633 21.9419ZM113.817 28.9905V27.1665H113.57C113.467 27.2696 113.312 27.4036 113.106 27.5684C112.9 27.7333 112.416 27.9497 111.653 28.2176C110.891 28.4856 110.035 28.6195 109.087 28.6195C108.16 28.6195 107.335 28.4753 106.614 28.1867C105.913 27.8776 105.357 27.4757 104.945 26.981C104.532 26.4658 104.213 25.7857 103.986 24.9407C103.595 23.601 103.399 21.7049 103.399 19.2523V14.986C103.399 14.5532 104.007 14.1307 105.223 13.7185C106.439 13.2857 107.717 13.0693 109.056 13.0693C110.849 13.0693 111.746 13.533 111.746 14.4605V18.3558C111.746 22.4778 112.076 24.5388 112.735 24.5388C113.127 24.5388 113.323 24.2605 113.323 23.7041V14.986C113.323 14.5532 113.972 14.1307 115.27 13.7185C116.569 13.2857 117.96 13.0693 119.444 13.0693C120.928 13.0693 121.67 13.4712 121.67 14.275V28.8978C121.67 33.4938 118.557 35.7918 112.333 35.7918C109.056 35.7918 106.83 35.4724 105.656 34.8335C105.14 34.5449 104.883 34.2461 104.883 33.9369C104.883 33.4423 105.089 32.6076 105.501 31.4328C105.913 30.2786 106.295 29.7016 106.645 29.7016C106.727 29.7016 107.016 29.7634 107.511 29.8871C109.036 30.2993 110.303 30.5054 111.313 30.5054C112.344 30.5054 113.013 30.392 113.323 30.1653C113.652 29.9386 113.817 29.547 113.817 28.9905Z" fill="#5A3F26"/>
<path d="M133.36 31H126.589C125.559 31 124.868 30.9279 124.518 30.7836C124.167 30.6393 123.992 30.4126 123.992 30.1035V10.2251C123.992 9.23583 126.97 8.74119 132.927 8.74119C136.348 8.74119 138.708 9.07095 140.006 9.73047C141.325 10.4106 142.17 11.2762 142.541 12.3273C142.747 12.9456 142.85 13.667 142.85 14.4914C142.85 16.099 142.572 17.3047 142.016 18.1084C141.48 18.9122 140.893 19.3657 140.254 19.4687C141.222 19.6748 142.026 20.1488 142.665 20.8908C143.304 21.6328 143.623 22.89 143.623 24.6624C143.623 26.7234 142.995 28.2486 141.738 29.2378C140.645 30.1035 138.976 30.6496 136.729 30.8763C135.781 30.9588 134.658 31 133.36 31ZM133.39 17.5211C134.442 17.5211 134.967 16.8203 134.967 15.4188C134.967 14.7181 134.823 14.2028 134.534 13.8731C134.266 13.5227 133.957 13.3475 133.607 13.3475H132.618V17.5211H133.39ZM132.618 26.3937H133.39C134.442 26.3937 134.967 25.6929 134.967 24.2914C134.967 23.5907 134.823 23.0755 134.534 22.7457C134.266 22.3953 133.957 22.2201 133.607 22.2201H132.618V26.3937ZM155.157 31.2782C153.611 31.2782 152.282 31.1443 151.169 30.8763C150.056 30.6084 149.046 30.1344 148.139 29.4542C146.264 28.094 145.326 25.559 145.326 21.8492C145.326 18.5516 146.284 16.1917 148.201 14.7696C149.994 13.4506 152.313 12.7911 155.157 12.7911C156.373 12.7911 157.414 12.8529 158.279 12.9765C159.145 13.0796 160.021 13.3166 160.907 13.6876C161.814 14.0586 162.535 14.5635 163.071 15.2024C163.628 15.8413 164.081 16.7276 164.432 17.8611C164.782 18.9741 164.957 20.3034 164.957 21.8492C164.957 24.9819 164.071 27.3417 162.298 28.9287C160.526 30.4951 158.146 31.2782 155.157 31.2782ZM154.075 25.2498C154.219 25.9918 154.364 26.4349 154.508 26.5792C154.673 26.7234 154.879 26.7956 155.126 26.7956C155.394 26.7956 155.6 26.7234 155.744 26.5792C155.909 26.4349 156.054 25.9918 156.177 25.2498C156.322 24.5078 156.394 23.5804 156.394 22.4675C156.394 21.3339 156.363 20.4683 156.301 19.8706C156.26 19.2523 156.198 18.7783 156.115 18.4485C156.054 18.1187 155.961 17.8611 155.837 17.6756C155.652 17.4077 155.425 17.2737 155.157 17.2737C154.91 17.2737 154.704 17.3562 154.539 17.5211C154.374 17.6653 154.219 18.1187 154.075 18.8813C153.931 19.6233 153.859 20.6847 153.859 22.0656C153.859 23.4464 153.931 24.5078 154.075 25.2498ZM176.321 31.2782C174.775 31.2782 173.445 31.1443 172.333 30.8763C171.22 30.6084 170.21 30.1344 169.303 29.4542C167.427 28.094 166.49 25.559 166.49 21.8492C166.49 18.5516 167.448 16.1917 169.365 14.7696C171.158 13.4506 173.476 12.7911 176.321 12.7911C177.537 12.7911 178.577 12.8529 179.443 12.9765C180.309 13.0796 181.185 13.3166 182.071 13.6876C182.978 14.0586 183.699 14.5635 184.235 15.2024C184.791 15.8413 185.245 16.7276 185.595 17.8611C185.945 18.9741 186.121 20.3034 186.121 21.8492C186.121 24.9819 185.234 27.3417 183.462 28.9287C181.689 30.4951 179.309 31.2782 176.321 31.2782ZM175.239 25.2498C175.383 25.9918 175.527 26.4349 175.671 26.5792C175.836 26.7234 176.042 26.7956 176.29 26.7956C176.558 26.7956 176.764 26.7234 176.908 26.5792C177.073 26.4349 177.217 25.9918 177.341 25.2498C177.485 24.5078 177.557 23.5804 177.557 22.4675C177.557 21.3339 177.526 20.4683 177.464 19.8706C177.423 19.2523 177.361 18.7783 177.279 18.4485C177.217 18.1187 177.124 17.8611 177.001 17.6756C176.815 17.4077 176.588 17.2737 176.321 17.2737C176.073 17.2737 175.867 17.3562 175.702 17.5211C175.537 17.6653 175.383 18.1187 175.239 18.8813C175.094 19.6233 175.022 20.6847 175.022 22.0656C175.022 23.4464 175.094 24.5078 175.239 25.2498ZM196.309 30.258C196.309 30.4847 195.732 30.6702 194.578 30.8145C193.424 30.9382 192.218 31 190.961 31C189.704 31 188.89 30.9485 188.519 30.8454C188.148 30.7218 187.962 30.526 187.962 30.258V8.86485C187.962 8.41143 188.539 7.96832 189.693 7.53551C190.868 7.1027 192.125 6.88629 193.465 6.88629C195.361 6.88629 196.309 7.36032 196.309 8.30838V19.8706H196.711C197.7 15.1509 198.432 12.7911 198.906 12.7911C200.102 12.7911 201.544 13.0693 203.234 13.6258C204.924 14.1822 205.769 14.8005 205.769 15.4807C205.769 15.9753 205.357 16.9234 204.533 18.3248C203.708 19.7263 202.853 20.8702 201.967 21.7564C204.914 25.2807 206.388 27.3726 206.388 28.0322C206.388 28.6505 205.45 29.4027 203.574 30.289C201.699 31.1752 200.38 31.6183 199.617 31.6183C199.246 31.6183 198.855 31.1752 198.442 30.289C198.03 29.3821 197.587 28.0322 197.113 26.2391L196.309 27.1975V30.258Z" fill="#88624E"/>
<path d="M16.9949 35.9997C16.9949 35.9997 31.947 36.1831 32.9156 26.6481C33.3613 22.2606 32.0303 18.3108 29.1979 16.0679C28.9676 11.7335 27.3142 7.08564 25.0397 4.25929C25.0397 4.25929 26.4814 1.97911 26.1335 1.46066C25.3688 0.320949 22.7479 2.32072 22.7479 2.32072C21.2264 1.47683 19.1952 1 16.9949 1C14.7946 1 12.7736 1.47683 11.2521 2.32072C11.2521 2.32072 8.63123 0.320949 7.86649 1.46066C7.51862 1.97911 8.96027 4.25929 8.96027 4.25929C6.68577 7.08564 5.03238 11.7335 4.8021 16.0679C1.96965 18.3108 0.638724 22.2606 1.0844 26.6481C2.05296 36.1831 16.9949 35.9997 16.9949 35.9997Z" fill="#C99875" stroke="#5A3F26" stroke-linecap="round"/>
<path d="M16.9949 1.00012C19.1952 1.00012 21.2264 1.47683 22.7479 2.32072C22.7479 2.32072 25.3688 0.320949 26.1335 1.46066C26.4814 1.97911 25.0397 4.25929 25.0397 4.25929C27.3142 7.08564 28.9676 11.7335 29.1979 16.0679C32.0304 18.3108 33.3613 22.2606 32.9156 26.6481C31.947 36.1831 16.9949 35.9997 16.9949 35.9997C16.9949 35.9997 2.05296 36.1831 1.0844 26.6481C0.638724 22.2606 1.96965 18.3108 4.8021 16.0679C5.03238 11.7335 6.68578 7.08564 8.96027 4.25929C8.96027 4.25929 7.51862 1.97911 7.86649 1.46066C8.63123 0.320949 11.2521 2.32072 11.2521 2.32072C12.7736 1.47683 14.7946 1 16.9949 1" stroke="#5A3F26" stroke-linecap="round"/>
<g filter="url(#filter0_f_2096_49)">
<path d="M8.19716 1.08298C8.69236 0.807191 9.8919 1.21312 11.4902 2.3867C11.4902 2.3867 10.8747 3.21889 10.4582 3.59013C10.0134 3.98667 9.06376 4.46764 9.06376 4.46764C8.24267 3.19602 7.2998 1.58274 8.19716 1.08298Z" fill="#88624E"/>
</g>
<g filter="url(#filter1_f_2096_49)">
<path d="M25.7774 1.08298C25.2823 0.807191 24.0827 1.21312 22.4844 2.3867C22.4844 2.3867 23.0999 3.21889 23.5164 3.59013C23.9612 3.98667 24.9109 4.46764 24.9109 4.46764C25.7319 3.19602 26.6748 1.58274 25.7774 1.08298Z" fill="#88624E"/>
</g>
<g filter="url(#filter2_f_2096_49)">
<path d="M20.9062 13.3602C20.9062 15.9495 20.9062 17.8619 16.9941 17.8619C13.082 17.8619 13.082 15.9495 13.082 13.3602C13.082 10.7709 15.4095 8.67188 16.9941 8.67188C19.1547 8.67188 20.9062 10.7709 20.9062 13.3602Z" fill="#88624F"/>
</g>
<path d="M16.9949 1.00012C19.1952 1.00012 21.2264 1.47683 22.7479 2.32072C22.7479 2.32072 25.3688 0.320949 26.1335 1.46066C26.4814 1.97911 25.0397 4.25929 25.0397 4.25929C27.3142 7.08564 28.9676 11.7335 29.1979 16.0679C32.0304 18.3108 33.3613 22.2606 32.9156 26.6481C32.4667 31.0674 29.0139 33.3991 25.4381 34.6289C21.2989 36.0525 16.9949 35.9997 16.9949 35.9997C16.9949 35.9997 2.05296 36.1831 1.0844 26.6481C0.638724 22.2606 1.96965 18.3108 4.8021 16.0679C5.03238 11.7335 6.68578 7.08564 8.96027 4.25929C8.96027 4.25929 7.51862 1.97911 7.86649 1.46066C8.63123 0.320949 11.2521 2.32072 11.2521 2.32072C12.7736 1.47683 14.7946 1 16.9949 1" stroke="#5A3F26" stroke-linecap="round"/>
<path d="M22.1927 8.97259H20.8041C20.1197 8.9726 21.0499 8.67186 21.4885 8.67188C21.927 8.67189 22.8969 8.97259 22.1927 8.97259Z" stroke="#5A3F26" stroke-linecap="round"/>
<path d="M13.179 8.97259H11.7904C11.106 8.9726 12.0363 8.67186 12.4748 8.67188C12.9134 8.67189 13.8833 8.97259 13.179 8.97259Z" stroke="#5A3F26" stroke-linecap="round"/>
<path d="M28.8796 19.2827L18.4679 24.0651H16.9701H15.4723L5.06055 19.2827C6.31142 19.3447 6.97066 19.1214 7.91005 18.75C9.16471 19.5684 10.8326 19.8138 13.3716 20.4428C15.774 21.038 16.9091 23.1199 16.9701 24.0651C17.0305 23.1199 18.1596 21.038 20.562 20.4428C23.101 19.8138 24.7689 19.5684 26.0236 18.75C26.9629 19.1214 27.6288 19.3447 28.8796 19.2827Z" fill="#FFEFDE"/>
<path d="M15.4102 24.2657H18.53M16.9701 24.0651H15.4723L5.06055 19.2827C6.31142 19.3447 6.97066 19.1214 7.91005 18.75C9.16471 19.5684 10.8326 19.8138 13.3716 20.4428C15.774 21.038 16.9091 23.1199 16.9701 24.0651ZM16.9701 24.0651H18.4679L28.8796 19.2827C27.6288 19.3447 26.9629 19.1214 26.0236 18.75C24.7689 19.5684 23.101 19.8138 20.562 20.4428C18.1596 21.038 17.0305 23.1199 16.9701 24.0651Z" stroke="#5A3F26" stroke-linecap="round"/>
<path d="M27.2599 22.5123C28.02 23.2069 29.315 23.5903 29.315 23.5903L29.4991 24.1417L29.1772 24.9691L28.5334 26.1976L26.7754 27.0751H25.7603C25.7603 27.0751 23.6464 27.05 23.0615 24.9691C22.6596 23.5394 22.9941 20.8363 24.462 20.8575C25.5285 20.873 26.4681 21.7886 27.2599 22.5123Z" fill="url(#paint0_linear_2096_49)"/>
<path d="M29.3146 23.5903C29.3146 23.5903 28.0196 23.2069 27.2595 22.5123C26.4677 21.7887 25.5281 20.873 24.4616 20.8576C22.9938 20.8363 22.5496 23.1884 22.9514 24.6181C23.5363 26.6991 25.576 27.2005 25.576 27.2005" stroke="#5A3F26" stroke-linecap="round"/>
<path d="M6.75379 22.5123C5.99368 23.2069 4.69871 23.5903 4.69871 23.5903L4.51462 24.1417L4.8365 24.9691L5.48026 26.1976L7.23822 27.0751H8.25337C8.25337 27.0751 10.3673 27.05 10.9522 24.9691C11.354 23.5394 11.0195 20.8363 9.55167 20.8575C8.48517 20.873 7.5456 21.7886 6.75379 22.5123Z" fill="url(#paint1_linear_2096_49)"/>
<path d="M4.69908 23.5903C4.69908 23.5903 5.99405 23.2069 6.75416 22.5123C7.54597 21.7887 8.48554 20.873 9.55205 20.8576C11.0199 20.8363 11.4641 23.1884 11.0623 24.6181C10.4774 26.6991 8.4377 27.2005 8.4377 27.2005" stroke="#5A3F26" stroke-linecap="round"/>
<path d="M16.9933 15.4662C17.0165 15.4977 17.668 16.405 18.3303 16.0177M16.9933 15.4662C16.9692 15.4977 16.3186 16.405 15.6562 16.0177M16.9933 15.4662V12.7083M18.3303 11.5801L16.9933 12.7083M16.9933 12.7083L15.6562 11.5801" stroke="#5A3F26" stroke-linecap="round"/>
<defs>
<filter id="filter0_f_2096_49" x="7.63436" y="0.802334" width="4.05354" height="3.86213" filterUnits="userSpaceOnUse" color-interpolation-filters="sRGB">
<feFlood flood-opacity="0" result="BackgroundImageFix"/>
<feBlend mode="normal" in="SourceGraphic" in2="BackgroundImageFix" result="shape"/>
<feGaussianBlur stdDeviation="0.0988332" result="effect1_foregroundBlur_2096_49"/>
</filter>
<filter id="filter1_f_2096_49" x="22.2867" y="0.802334" width="4.05354" height="3.86213" filterUnits="userSpaceOnUse" color-interpolation-filters="sRGB">
<feFlood flood-opacity="0" result="BackgroundImageFix"/>
<feBlend mode="normal" in="SourceGraphic" in2="BackgroundImageFix" result="shape"/>
<feGaussianBlur stdDeviation="0.0988332" result="effect1_foregroundBlur_2096_49"/>
</filter>
<filter id="filter2_f_2096_49" x="12.6867" y="8.27654" width="8.61488" height="9.98012" filterUnits="userSpaceOnUse" color-interpolation-filters="sRGB">
<feFlood flood-opacity="0" result="BackgroundImageFix"/>
<feBlend mode="normal" in="SourceGraphic" in2="BackgroundImageFix" result="shape"/>
<feGaussianBlur stdDeviation="0.197666" result="effect1_foregroundBlur_2096_49"/>
</filter>
<linearGradient id="paint0_linear_2096_49" x1="25.4879" y1="22.8631" x2="27.6978" y2="25.368" gradientUnits="userSpaceOnUse">
<stop stop-color="#88624E"/>
<stop offset="1" stop-color="#C99875"/>
</linearGradient>
<linearGradient id="paint1_linear_2096_49" x1="8.52573" y1="22.8631" x2="6.31583" y2="25.368" gradientUnits="userSpaceOnUse">
<stop stop-color="#88624E"/>
<stop offset="1" stop-color="#C99875"/>
</linearGradient>
</defs>
</svg>
