<svg width="34" height="37" viewBox="0 0 34 37" fill="none" xmlns="http://www.w3.org/2000/svg">
<path d="M16.9949 35.9997C16.9949 35.9997 31.947 36.1831 32.9156 26.6481C33.3613 22.2606 32.0303 18.3108 29.1979 16.0679C28.9676 11.7335 27.3142 7.08564 25.0397 4.25929C25.0397 4.25929 26.4814 1.97911 26.1335 1.46066C25.3688 0.320949 22.7479 2.32072 22.7479 2.32072C21.2264 1.47683 19.1952 1 16.9949 1C14.7946 1 12.7736 1.47683 11.2521 2.32072C11.2521 2.32072 8.63123 0.320949 7.86649 1.46066C7.51862 1.97911 8.96027 4.25929 8.96027 4.25929C6.68577 7.08564 5.03238 11.7335 4.8021 16.0679C1.96965 18.3108 0.638724 22.2606 1.0844 26.6481C2.05296 36.1831 16.9949 35.9997 16.9949 35.9997Z" fill="#C99875" stroke="#5A3F26" stroke-linecap="round"/>
<path d="M16.9949 1.00012C19.1952 1.00012 21.2264 1.47683 22.7479 2.32072C22.7479 2.32072 25.3688 0.320949 26.1335 1.46066C26.4814 1.97911 25.0397 4.25929 25.0397 4.25929C27.3142 7.08564 28.9676 11.7335 29.1979 16.0679C32.0304 18.3108 33.3613 22.2606 32.9156 26.6481C31.947 36.1831 16.9949 35.9997 16.9949 35.9997C16.9949 35.9997 2.05296 36.1831 1.0844 26.6481C0.638724 22.2606 1.96965 18.3108 4.8021 16.0679C5.03238 11.7335 6.68578 7.08564 8.96027 4.25929C8.96027 4.25929 7.51862 1.97911 7.86649 1.46066C8.63123 0.320949 11.2521 2.32072 11.2521 2.32072C12.7736 1.47683 14.7946 1 16.9949 1" stroke="#5A3F26" stroke-linecap="round"/>
<g filter="url(#filter0_f_1676_120)">
<path d="M8.19716 1.08298C8.69236 0.807191 9.8919 1.21312 11.4902 2.3867C11.4902 2.3867 10.8747 3.21889 10.4582 3.59013C10.0134 3.98667 9.06376 4.46764 9.06376 4.46764C8.24267 3.19602 7.2998 1.58274 8.19716 1.08298Z" fill="#88624E"/>
</g>
<g filter="url(#filter1_f_1676_120)">
<path d="M25.7774 1.08298C25.2823 0.807191 24.0827 1.21312 22.4844 2.3867C22.4844 2.3867 23.0999 3.21889 23.5164 3.59013C23.9612 3.98667 24.9109 4.46764 24.9109 4.46764C25.7319 3.19602 26.6748 1.58274 25.7774 1.08298Z" fill="#88624E"/>
</g>
<g filter="url(#filter2_f_1676_120)">
<path d="M20.9062 13.3602C20.9062 15.9495 20.9062 17.8619 16.9941 17.8619C13.082 17.8619 13.082 15.9495 13.082 13.3602C13.082 10.7709 15.4095 8.67188 16.9941 8.67188C19.1547 8.67188 20.9062 10.7709 20.9062 13.3602Z" fill="#88624F"/>
</g>
<path d="M16.9949 1.00012C19.1952 1.00012 21.2264 1.47683 22.7479 2.32072C22.7479 2.32072 25.3688 0.320949 26.1335 1.46066C26.4814 1.97911 25.0397 4.25929 25.0397 4.25929C27.3142 7.08564 28.9676 11.7335 29.1979 16.0679C32.0304 18.3108 33.3613 22.2606 32.9156 26.6481C32.4667 31.0674 29.0139 33.3991 25.4381 34.6289C21.2989 36.0525 16.9949 35.9997 16.9949 35.9997C16.9949 35.9997 2.05296 36.1831 1.0844 26.6481C0.638724 22.2606 1.96965 18.3108 4.8021 16.0679C5.03238 11.7335 6.68578 7.08564 8.96027 4.25929C8.96027 4.25929 7.51862 1.97911 7.86649 1.46066C8.63123 0.320949 11.2521 2.32072 11.2521 2.32072C12.7736 1.47683 14.7946 1 16.9949 1" stroke="#5A3F26" stroke-linecap="round"/>
<path d="M22.1927 8.97259H20.8041C20.1197 8.9726 21.0499 8.67186 21.4885 8.67188C21.927 8.67189 22.8969 8.97259 22.1927 8.97259Z" stroke="#5A3F26" stroke-linecap="round"/>
<path d="M13.179 8.97259H11.7904C11.106 8.9726 12.0363 8.67186 12.4748 8.67188C12.9134 8.67189 13.8833 8.97259 13.179 8.97259Z" stroke="#5A3F26" stroke-linecap="round"/>
<path d="M28.8796 19.2827L18.4679 24.0651H16.9701H15.4723L5.06055 19.2827C6.31142 19.3447 6.97066 19.1214 7.91005 18.75C9.16471 19.5684 10.8326 19.8138 13.3716 20.4428C15.774 21.038 16.9091 23.1199 16.9701 24.0651C17.0305 23.1199 18.1596 21.038 20.562 20.4428C23.101 19.8138 24.7689 19.5684 26.0236 18.75C26.9629 19.1214 27.6288 19.3447 28.8796 19.2827Z" fill="#FFEFDE"/>
<path d="M15.4102 24.2657H18.53M16.9701 24.0651H15.4723L5.06055 19.2827C6.31142 19.3447 6.97066 19.1214 7.91005 18.75C9.16471 19.5684 10.8326 19.8138 13.3716 20.4428C15.774 21.038 16.9091 23.1199 16.9701 24.0651ZM16.9701 24.0651H18.4679L28.8796 19.2827C27.6288 19.3447 26.9629 19.1214 26.0236 18.75C24.7689 19.5684 23.101 19.8138 20.562 20.4428C18.1596 21.038 17.0305 23.1199 16.9701 24.0651Z" stroke="#5A3F26" stroke-linecap="round"/>
<path d="M27.2599 22.5123C28.02 23.2069 29.315 23.5903 29.315 23.5903L29.4991 24.1417L29.1772 24.9691L28.5334 26.1976L26.7754 27.0751H25.7603C25.7603 27.0751 23.6464 27.05 23.0615 24.9691C22.6596 23.5394 22.9941 20.8363 24.462 20.8575C25.5285 20.873 26.4681 21.7886 27.2599 22.5123Z" fill="url(#paint0_linear_1676_120)"/>
<path d="M29.3146 23.5903C29.3146 23.5903 28.0196 23.2069 27.2595 22.5123C26.4677 21.7887 25.5281 20.873 24.4616 20.8576C22.9938 20.8363 22.5496 23.1884 22.9514 24.6181C23.5363 26.6991 25.576 27.2005 25.576 27.2005" stroke="#5A3F26" stroke-linecap="round"/>
<path d="M6.75379 22.5123C5.99368 23.2069 4.69871 23.5903 4.69871 23.5903L4.51462 24.1417L4.8365 24.9691L5.48026 26.1976L7.23822 27.0751H8.25337C8.25337 27.0751 10.3673 27.05 10.9522 24.9691C11.354 23.5394 11.0195 20.8363 9.55167 20.8575C8.48517 20.873 7.5456 21.7886 6.75379 22.5123Z" fill="url(#paint1_linear_1676_120)"/>
<path d="M4.69908 23.5903C4.69908 23.5903 5.99405 23.2069 6.75416 22.5123C7.54597 21.7887 8.48554 20.873 9.55205 20.8576C11.0199 20.8363 11.4641 23.1884 11.0623 24.6181C10.4774 26.6991 8.4377 27.2005 8.4377 27.2005" stroke="#5A3F26" stroke-linecap="round"/>
<path d="M16.9933 15.4662C17.0165 15.4977 17.668 16.405 18.3303 16.0177M16.9933 15.4662C16.9692 15.4977 16.3186 16.405 15.6562 16.0177M16.9933 15.4662V12.7083M18.3303 11.5801L16.9933 12.7083M16.9933 12.7083L15.6562 11.5801" stroke="#5A3F26" stroke-linecap="round"/>
<defs>
<filter id="filter0_f_1676_120" x="7.63436" y="0.802334" width="4.05354" height="3.86213" filterUnits="userSpaceOnUse" color-interpolation-filters="sRGB">
<feFlood flood-opacity="0" result="BackgroundImageFix"/>
<feBlend mode="normal" in="SourceGraphic" in2="BackgroundImageFix" result="shape"/>
<feGaussianBlur stdDeviation="0.0988332" result="effect1_foregroundBlur_1676_120"/>
</filter>
<filter id="filter1_f_1676_120" x="22.2867" y="0.802334" width="4.05354" height="3.86213" filterUnits="userSpaceOnUse" color-interpolation-filters="sRGB">
<feFlood flood-opacity="0" result="BackgroundImageFix"/>
<feBlend mode="normal" in="SourceGraphic" in2="BackgroundImageFix" result="shape"/>
<feGaussianBlur stdDeviation="0.0988332" result="effect1_foregroundBlur_1676_120"/>
</filter>
<filter id="filter2_f_1676_120" x="12.6867" y="8.27654" width="8.61488" height="9.98012" filterUnits="userSpaceOnUse" color-interpolation-filters="sRGB">
<feFlood flood-opacity="0" result="BackgroundImageFix"/>
<feBlend mode="normal" in="SourceGraphic" in2="BackgroundImageFix" result="shape"/>
<feGaussianBlur stdDeviation="0.197666" result="effect1_foregroundBlur_1676_120"/>
</filter>
<linearGradient id="paint0_linear_1676_120" x1="25.4879" y1="22.8631" x2="27.6978" y2="25.368" gradientUnits="userSpaceOnUse">
<stop stop-color="#88624E"/>
<stop offset="1" stop-color="#C99875"/>
</linearGradient>
<linearGradient id="paint1_linear_1676_120" x1="8.52573" y1="22.8631" x2="6.31583" y2="25.368" gradientUnits="userSpaceOnUse">
<stop stop-color="#88624E"/>
<stop offset="1" stop-color="#C99875"/>
</linearGradient>
</defs>
</svg>
