<svg width="32" height="32" viewBox="0 0 32 32" fill="none" xmlns="http://www.w3.org/2000/svg">
<path fill-rule="evenodd" clip-rule="evenodd" d="M16 32C7.16344 32 0 24.8366 0 16C0 7.16344 7.16344 0 16 0C24.8366 0 32 7.16344 32 16C32 24.8366 24.8366 32 16 32ZM16.8703 23.0241C16.6395 23.2549 16.3264 23.3846 16 23.3846C15.6736 23.3846 15.3605 23.2549 15.1297 23.0241L10.2066 18.1011C9.72599 17.6204 9.72599 16.8411 10.2066 16.3605C10.6873 15.8798 11.4666 15.8798 11.9472 16.3605L14.7692 19.1825L14.7692 9.84615C14.7692 9.16642 15.3203 8.61538 16 8.61538C16.6797 8.61538 17.2308 9.16642 17.2308 9.84615L17.2308 19.1825L20.0528 16.3605C20.5334 15.8798 21.3127 15.8798 21.7934 16.3605C22.274 16.8411 22.274 17.6204 21.7934 18.1011L16.8703 23.0241Z" fill="#5A3F26"/>
</svg>
