<svg width="20" height="20" viewBox="0 0 20 20" fill="none" xmlns="http://www.w3.org/2000/svg">
<mask id="path-1-inside-1_235_4" fill="white">
<path d="M8.14201 0.62445C9.31641 -0.26722 10.981 -0.204148 12.0854 0.814879L12.5043 1.2016L12.5922 1.27386C12.805 1.43021 13.0717 1.49997 13.3363 1.46429L13.9125 1.38617C15.5392 1.16689 17.0522 2.26403 17.349 3.87836L17.4164 4.2475L17.4447 4.36371C17.5261 4.62814 17.7124 4.85053 17.9623 4.97699L18.3119 5.15375L18.4516 5.22894C19.8689 6.03941 20.4127 7.83165 19.6596 9.30121L19.5404 9.53461C19.3902 9.82802 19.3902 10.1758 19.5404 10.4692L19.6596 10.7026L19.7289 10.8461C20.3983 12.335 19.785 14.1044 18.3119 14.85L17.9623 15.0268C17.6766 15.1714 17.4743 15.4414 17.4164 15.7563L17.349 16.1254C17.052 17.7395 15.539 18.8368 13.9125 18.6176L13.3363 18.5395C13.0716 18.5038 12.8051 18.5734 12.5922 18.7299L12.5043 18.8022L12.0854 19.1889C10.9075 20.2758 9.09153 20.2755 7.91349 19.1889L7.49455 18.8022C7.27018 18.5952 6.96505 18.4988 6.66252 18.5395L6.08634 18.6176C4.56156 18.8233 3.13723 17.8717 2.72013 16.4223L2.64982 16.1254L2.58244 15.7563C2.5318 15.4809 2.37056 15.2392 2.14005 15.0864L2.03654 15.0268L1.68693 14.85C0.166124 14.0802 -0.438018 12.2196 0.339273 10.7026L0.458414 10.4692L0.508218 10.3569C0.592654 10.1281 0.592535 9.87573 0.508218 9.64691L0.458414 9.53461L0.339273 9.30121C-0.438187 7.78417 0.166029 5.92357 1.68693 5.15375L2.03654 4.97699L2.14005 4.91742C2.37066 4.76468 2.53169 4.52283 2.58244 4.2475L2.64982 3.87836L2.72013 3.58148C3.13705 2.13178 4.56139 1.18043 6.08634 1.38617L6.66252 1.46429L6.7758 1.47308C7.03993 1.47911 7.29821 1.38275 7.49455 1.2016L7.91349 0.814879L8.14201 0.62445ZM10.6947 2.32172C10.3021 1.95957 9.69674 1.95954 9.30412 2.32172L8.88517 2.70843C8.25404 3.29081 7.41 3.5808 6.559 3.5141L6.3881 3.49652L5.81193 3.4184C5.30346 3.34987 4.8286 3.6673 4.68986 4.15082L4.66642 4.24945L4.59904 4.61859C4.43608 5.50409 3.89368 6.27138 3.12052 6.72113L2.96232 6.80707L2.61271 6.98382C2.10615 7.24052 1.90463 7.86017 2.16349 8.36566L2.28361 8.59906C2.73466 9.47962 2.73483 10.5242 2.28361 11.4047L2.16349 11.6381C1.90474 12.1436 2.10622 12.7633 2.61271 13.02L2.96232 13.1967L3.12052 13.2827C3.89359 13.7325 4.43619 14.4997 4.59904 15.3852L4.66642 15.7543L4.68986 15.8539C4.8291 16.3367 5.30394 16.6538 5.81193 16.5854L6.3881 16.5073C7.29608 16.3849 8.21183 16.674 8.88517 17.2953L9.30412 17.6821C9.69676 18.0439 10.3022 18.0441 10.6947 17.6821L11.1137 17.2953L11.2426 17.183C11.9014 16.6396 12.7593 16.3924 13.6108 16.5073L14.1869 16.5854C14.7288 16.6582 15.2333 16.2921 15.3324 15.7543L15.3998 15.3852C15.5736 14.4404 16.1794 13.6305 17.0365 13.1967L17.3861 13.02C17.8609 12.7793 18.0676 12.2193 17.8783 11.7338L17.8354 11.6381L17.7153 11.4047C17.264 10.5241 17.264 9.47967 17.7153 8.59906L17.8354 8.36566C18.0781 7.89171 17.9157 7.31698 17.477 7.03558L17.3861 6.98382L17.0365 6.80707C16.2332 6.4005 15.6508 5.66309 15.4379 4.79437L15.3998 4.61859L15.3324 4.24945C15.2335 3.71144 14.729 3.34549 14.1869 3.4184L13.6108 3.49652C12.7597 3.61134 11.9013 3.36465 11.2426 2.82172L11.1137 2.70843L10.6947 2.32172Z"/>
</mask>
<path d="M8.14201 0.62445C9.31641 -0.26722 10.981 -0.204148 12.0854 0.814879L12.5043 1.2016L12.5922 1.27386C12.805 1.43021 13.0717 1.49997 13.3363 1.46429L13.9125 1.38617C15.5392 1.16689 17.0522 2.26403 17.349 3.87836L17.4164 4.2475L17.4447 4.36371C17.5261 4.62814 17.7124 4.85053 17.9623 4.97699L18.3119 5.15375L18.4516 5.22894C19.8689 6.03941 20.4127 7.83165 19.6596 9.30121L19.5404 9.53461C19.3902 9.82802 19.3902 10.1758 19.5404 10.4692L19.6596 10.7026L19.7289 10.8461C20.3983 12.335 19.785 14.1044 18.3119 14.85L17.9623 15.0268C17.6766 15.1714 17.4743 15.4414 17.4164 15.7563L17.349 16.1254C17.052 17.7395 15.539 18.8368 13.9125 18.6176L13.3363 18.5395C13.0716 18.5038 12.8051 18.5734 12.5922 18.7299L12.5043 18.8022L12.0854 19.1889C10.9075 20.2758 9.09153 20.2755 7.91349 19.1889L7.49455 18.8022C7.27018 18.5952 6.96505 18.4988 6.66252 18.5395L6.08634 18.6176C4.56156 18.8233 3.13723 17.8717 2.72013 16.4223L2.64982 16.1254L2.58244 15.7563C2.5318 15.4809 2.37056 15.2392 2.14005 15.0864L2.03654 15.0268L1.68693 14.85C0.166124 14.0802 -0.438018 12.2196 0.339273 10.7026L0.458414 10.4692L0.508218 10.3569C0.592654 10.1281 0.592535 9.87573 0.508218 9.64691L0.458414 9.53461L0.339273 9.30121C-0.438187 7.78417 0.166029 5.92357 1.68693 5.15375L2.03654 4.97699L2.14005 4.91742C2.37066 4.76468 2.53169 4.52283 2.58244 4.2475L2.64982 3.87836L2.72013 3.58148C3.13705 2.13178 4.56139 1.18043 6.08634 1.38617L6.66252 1.46429L6.7758 1.47308C7.03993 1.47911 7.29821 1.38275 7.49455 1.2016L7.91349 0.814879L8.14201 0.62445ZM10.6947 2.32172C10.3021 1.95957 9.69674 1.95954 9.30412 2.32172L8.88517 2.70843C8.25404 3.29081 7.41 3.5808 6.559 3.5141L6.3881 3.49652L5.81193 3.4184C5.30346 3.34987 4.8286 3.6673 4.68986 4.15082L4.66642 4.24945L4.59904 4.61859C4.43608 5.50409 3.89368 6.27138 3.12052 6.72113L2.96232 6.80707L2.61271 6.98382C2.10615 7.24052 1.90463 7.86017 2.16349 8.36566L2.28361 8.59906C2.73466 9.47962 2.73483 10.5242 2.28361 11.4047L2.16349 11.6381C1.90474 12.1436 2.10622 12.7633 2.61271 13.02L2.96232 13.1967L3.12052 13.2827C3.89359 13.7325 4.43619 14.4997 4.59904 15.3852L4.66642 15.7543L4.68986 15.8539C4.8291 16.3367 5.30394 16.6538 5.81193 16.5854L6.3881 16.5073C7.29608 16.3849 8.21183 16.674 8.88517 17.2953L9.30412 17.6821C9.69676 18.0439 10.3022 18.0441 10.6947 17.6821L11.1137 17.2953L11.2426 17.183C11.9014 16.6396 12.7593 16.3924 13.6108 16.5073L14.1869 16.5854C14.7288 16.6582 15.2333 16.2921 15.3324 15.7543L15.3998 15.3852C15.5736 14.4404 16.1794 13.6305 17.0365 13.1967L17.3861 13.02C17.8609 12.7793 18.0676 12.2193 17.8783 11.7338L17.8354 11.6381L17.7153 11.4047C17.264 10.5241 17.264 9.47967 17.7153 8.59906L17.8354 8.36566C18.0781 7.89171 17.9157 7.31698 17.477 7.03558L17.3861 6.98382L17.0365 6.80707C16.2332 6.4005 15.6508 5.66309 15.4379 4.79437L15.3998 4.61859L15.3324 4.24945C15.2335 3.71144 14.729 3.34549 14.1869 3.4184L13.6108 3.49652C12.7597 3.61134 11.9013 3.36465 11.2426 2.82172L11.1137 2.70843L10.6947 2.32172Z" fill="#5A3F26"/>
<path d="M8.14201 0.62445L7.21209 -0.600332L7.18432 -0.579247L7.15753 -0.556924L8.14201 0.62445ZM12.0854 0.814879L13.1284 -0.315104L13.1282 -0.315318L12.0854 0.814879ZM12.5043 1.2016L11.4613 2.33158L11.4936 2.36146L11.5276 2.38944L12.5043 1.2016ZM12.5922 1.27386L11.6155 2.4617L11.6479 2.48833L11.6817 2.51316L12.5922 1.27386ZM13.3363 1.46429L13.5418 2.98831L13.543 2.98815L13.3363 1.46429ZM13.9125 1.38617L13.7071 -0.137852L13.7059 -0.137691L13.9125 1.38617ZM17.349 3.87836L18.8618 3.60221L18.8615 3.60021L17.349 3.87836ZM17.4164 4.2475L15.9036 4.52364L15.9117 4.5679L15.9223 4.6116L17.4164 4.2475ZM17.4447 4.36371L15.9507 4.72781L15.9615 4.77229L15.975 4.81605L17.4447 4.36371ZM17.9623 4.97699L17.2679 6.34909L17.2685 6.34936L17.9623 4.97699ZM18.3119 5.15375L19.041 3.79975L19.0235 3.79034L19.0058 3.78137L18.3119 5.15375ZM18.4516 5.22894L19.215 3.89399L19.1979 3.88425L19.1807 3.87495L18.4516 5.22894ZM19.6596 9.30121L18.291 8.59984L18.2899 8.60204L19.6596 9.30121ZM19.5404 9.53461L20.9093 10.2354L20.9101 10.2338L19.5404 9.53461ZM19.5404 10.4692L20.9101 9.77001L20.9092 9.76814L19.5404 10.4692ZM19.6596 10.7026L21.0443 10.0338L21.037 10.0185L21.0293 10.0034L19.6596 10.7026ZM19.7289 10.8461L21.1315 10.2155L21.1228 10.1963L21.1137 10.1773L19.7289 10.8461ZM18.3119 14.85L19.0058 16.2224L19.0065 16.2221L18.3119 14.85ZM17.9623 15.0268L17.2685 13.6544L17.2679 13.6547L17.9623 15.0268ZM17.4164 15.7563L15.904 15.4781L15.9036 15.4801L17.4164 15.7563ZM17.349 16.1254L18.8614 16.4038L18.8618 16.4016L17.349 16.1254ZM13.9125 18.6176L13.7059 20.1415L13.7071 20.1416L13.9125 18.6176ZM13.3363 18.5395L13.543 17.0156L13.5418 17.0155L13.3363 18.5395ZM12.5922 18.7299L11.6811 17.4911L11.6476 17.5157L11.6155 17.5421L12.5922 18.7299ZM12.5043 18.8022L11.5276 17.6143L11.4936 17.6423L11.4613 17.6722L12.5043 18.8022ZM12.0854 19.1889L13.1282 20.3191L13.1284 20.3189L12.0854 19.1889ZM7.91349 19.1889L6.87043 20.3189L6.87086 20.3193L7.91349 19.1889ZM7.49455 18.8022L8.53761 17.6722L8.5373 17.6719L7.49455 18.8022ZM6.66252 18.5395L6.4575 17.0154L6.45589 17.0156L6.66252 18.5395ZM6.08634 18.6176L6.29195 20.1416L6.29297 20.1415L6.08634 18.6176ZM2.72013 16.4223L1.22373 16.7767L1.23217 16.8124L1.2423 16.8476L2.72013 16.4223ZM2.64982 16.1254L1.13701 16.4016L1.1442 16.4409L1.15341 16.4798L2.64982 16.1254ZM2.58244 15.7563L4.09525 15.4801L4.09488 15.4781L2.58244 15.7563ZM2.14005 15.0864L2.98984 13.8047L2.94927 13.7778L2.90708 13.7535L2.14005 15.0864ZM2.03654 15.0268L2.80356 13.6939L2.76751 13.6732L2.73039 13.6544L2.03654 15.0268ZM1.68693 14.85L0.99243 16.2221L0.993076 16.2224L1.68693 14.85ZM0.339273 10.7026L1.70788 11.4038L1.70895 11.4017L0.339273 10.7026ZM0.458414 10.4692L1.82809 11.1683L1.84717 11.131L1.86418 11.0926L0.458414 10.4692ZM0.508218 10.3569L1.91399 10.9803L1.9339 10.9354L1.95091 10.8893L0.508218 10.3569ZM0.508218 9.64691L1.95117 9.1152L1.93406 9.06874L1.91399 9.02348L0.508218 9.64691ZM0.458414 9.53461L1.86418 8.91118L1.84717 8.87282L1.82809 8.83544L0.458414 9.53461ZM0.339273 9.30121L1.70895 8.60204L1.70782 8.59984L0.339273 9.30121ZM1.68693 5.15375L0.993075 3.78137L0.992447 3.78169L1.68693 5.15375ZM2.03654 4.97699L2.73039 6.34936L2.76751 6.3306L2.80356 6.30985L2.03654 4.97699ZM2.14005 4.91742L2.90708 6.25028L2.94895 6.22618L2.98923 6.1995L2.14005 4.91742ZM2.58244 4.2475L4.09477 4.52622L4.09524 4.52364L2.58244 4.2475ZM2.64982 3.87836L1.15341 3.52394L1.1442 3.56286L1.13701 3.60221L2.64982 3.87836ZM2.72013 3.58148L1.24223 3.15645L1.23214 3.19154L1.22373 3.22707L2.72013 3.58148ZM6.08634 1.38617L6.29297 -0.137691L6.29195 -0.137828L6.08634 1.38617ZM6.66252 1.46429L6.45589 2.98815L6.49959 2.99408L6.54356 2.99749L6.66252 1.46429ZM6.7758 1.47308L6.65684 3.00628L6.69873 3.00953L6.74072 3.01049L6.7758 1.47308ZM7.49455 1.2016L8.53734 2.33183L8.53761 2.33158L7.49455 1.2016ZM7.91349 0.814879L6.92901 -0.366495L6.89907 -0.341542L6.87043 -0.315104L7.91349 0.814879ZM10.6947 2.32172L11.7378 1.19173L11.7374 1.19132L10.6947 2.32172ZM9.30412 2.32172L8.26145 1.19137L8.26105 1.19173L9.30412 2.32172ZM8.88517 2.70843L9.92803 3.83861L9.92823 3.83842L8.88517 2.70843ZM6.559 3.5141L6.40166 5.04383L6.42022 5.04574L6.43883 5.0472L6.559 3.5141ZM6.3881 3.49652L6.18148 5.02038L6.20607 5.02371L6.23076 5.02625L6.3881 3.49652ZM5.81193 3.4184L6.01855 1.89453L6.0173 1.89437L5.81193 3.4184ZM4.68986 4.15082L3.2117 3.72668L3.20192 3.76078L3.19371 3.7953L4.68986 4.15082ZM4.66642 4.24945L3.17028 3.89393L3.1609 3.9334L3.15361 3.9733L4.66642 4.24945ZM4.59904 4.61859L6.11145 4.89693L6.11185 4.89474L4.59904 4.61859ZM3.12052 6.72113L3.85457 8.07243L3.87433 8.0617L3.89376 8.05039L3.12052 6.72113ZM2.96232 6.80707L3.65617 8.17944L3.67642 8.1692L3.69636 8.15837L2.96232 6.80707ZM2.61271 6.98382L1.91886 5.61145L1.9176 5.61209L2.61271 6.98382ZM2.16349 8.36566L0.794729 9.06662L0.796141 9.06936L2.16349 8.36566ZM2.28361 8.59906L3.6523 7.89797L3.65096 7.89536L2.28361 8.59906ZM2.28361 11.4047L3.65096 12.1084L3.65218 12.1061L2.28361 11.4047ZM2.16349 11.6381L0.796137 10.9344L0.794625 10.9374L2.16349 11.6381ZM2.61271 13.02L1.91755 14.3917L1.91886 14.3923L2.61271 13.02ZM2.96232 13.1967L3.69636 11.8454L3.67642 11.8346L3.65617 11.8243L2.96232 13.1967ZM3.12052 13.2827L3.89395 11.9535L3.87442 11.9421L3.85457 11.9313L3.12052 13.2827ZM4.59904 15.3852L6.11185 15.109L6.11148 15.107L4.59904 15.3852ZM4.66642 15.7543L3.15361 16.0305L3.16059 16.0687L3.1695 16.1066L4.66642 15.7543ZM4.68986 15.8539L3.19293 16.2062L3.20169 16.2434L3.21229 16.2801L4.68986 15.8539ZM5.81193 16.5854L6.01732 18.1094L6.01855 18.1092L5.81193 16.5854ZM6.3881 16.5073L6.18266 14.9832L6.18148 14.9834L6.3881 16.5073ZM8.88517 17.2953L9.92823 16.1654L9.92803 16.1652L8.88517 17.2953ZM9.30412 17.6821L8.26105 18.8121L8.26207 18.813L9.30412 17.6821ZM10.6947 17.6821L11.7374 18.8124L11.7378 18.8121L10.6947 17.6821ZM11.1137 17.2953L10.1035 16.1359L10.0869 16.1504L10.0706 16.1654L11.1137 17.2953ZM11.2426 17.183L10.264 15.9968L10.2481 16.0099L10.2324 16.0236L11.2426 17.183ZM13.6108 16.5073L13.8174 14.9834L13.8164 14.9833L13.6108 16.5073ZM14.1869 16.5854L13.9803 18.1092L13.9821 18.1095L14.1869 16.5854ZM15.3324 15.7543L16.8448 16.033L16.8452 16.0305L15.3324 15.7543ZM15.3998 15.3852L13.8874 15.107L13.887 15.109L15.3998 15.3852ZM17.0365 13.1967L16.3427 11.8243L16.3421 11.8246L17.0365 13.1967ZM17.3861 13.02L18.08 14.3923L18.0814 14.3916L17.3861 13.02ZM17.8783 11.7338L19.3111 11.1753L19.2971 11.1393L19.2812 11.104L17.8783 11.7338ZM17.8354 11.6381L19.2383 11.0083L19.2215 10.9709L19.2027 10.9344L17.8354 11.6381ZM17.7153 11.4047L16.3467 12.106L16.3479 12.1084L17.7153 11.4047ZM17.7153 8.59906L16.3479 7.89536L16.3466 7.89781L17.7153 8.59906ZM17.8354 8.36566L19.2027 9.06936L19.2041 9.06666L17.8354 8.36566ZM17.477 7.03558L18.3073 5.74119L18.2734 5.71945L18.2384 5.69951L17.477 7.03558ZM17.3861 6.98382L18.1476 5.64775L18.1142 5.62876L18.08 5.61145L17.3861 6.98382ZM17.0365 6.80707L16.3421 8.17917L16.3427 8.17944L17.0365 6.80707ZM15.4379 4.79437L13.935 5.12001L13.9394 5.14029L13.9443 5.16045L15.4379 4.79437ZM15.3998 4.61859L13.887 4.89474L13.8915 4.91956L13.8969 4.94423L15.3998 4.61859ZM15.3324 4.24945L16.8452 3.9733L16.8449 3.97131L15.3324 4.24945ZM14.1869 3.4184L13.982 1.89431L13.9803 1.89454L14.1869 3.4184ZM13.6108 3.49652L13.8164 5.02052L13.8174 5.02038L13.6108 3.49652ZM11.2426 2.82172L10.2275 3.97686L10.2457 3.99291L10.2645 4.00837L11.2426 2.82172ZM11.1137 2.70843L10.0706 3.83842L10.0844 3.85117L10.0986 3.86358L11.1137 2.70843ZM8.14201 0.62445L9.07193 1.84923C9.65855 1.40384 10.4913 1.43643 11.0425 1.94508L12.0854 0.814879L13.1282 -0.315318C11.4707 -1.84473 8.97427 -1.93828 7.21209 -0.600332L8.14201 0.62445ZM12.0854 0.814879L11.0423 1.94486L11.4613 2.33158L12.5043 1.2016L13.5474 0.0716143L13.1284 -0.315104L12.0854 0.814879ZM12.5043 1.2016L11.5276 2.38944L11.6155 2.4617L12.5922 1.27386L13.5689 0.0860246L13.481 0.013759L12.5043 1.2016ZM12.5922 1.27386L11.6817 2.51316C12.2118 2.90262 12.8777 3.07783 13.5418 2.98831L13.3363 1.46429L13.1309 -0.0597255C13.2657 -0.0778981 13.3982 -0.042189 13.5027 0.0345668L12.5922 1.27386ZM13.3363 1.46429L13.543 2.98815L14.1191 2.91003L13.9125 1.38617L13.7059 -0.137691L13.1297 -0.0595661L13.3363 1.46429ZM13.9125 1.38617L14.118 2.91019C14.9314 2.80054 15.6882 3.34943 15.8366 4.1565L17.349 3.87836L18.8615 3.60021C18.4161 1.17862 16.147 -0.46675 13.7071 -0.137851L13.9125 1.38617ZM17.349 3.87836L15.8362 4.1545L15.9036 4.52364L17.4164 4.2475L18.9292 3.97135L18.8618 3.60221L17.349 3.87836ZM17.4164 4.2475L15.9223 4.6116L15.9507 4.72781L17.4447 4.36371L18.9388 3.9996L18.9105 3.88339L17.4164 4.2475ZM17.4447 4.36371L15.975 4.81605C16.1789 5.47875 16.6446 6.03363 17.2679 6.34909L17.9623 4.97699L18.6567 3.60489C18.7803 3.66743 18.8733 3.77753 18.9145 3.91137L17.4447 4.36371ZM17.9623 4.97699L17.2685 6.34936L17.6181 6.52612L18.3119 5.15375L19.0058 3.78137L18.6562 3.60462L17.9623 4.97699ZM18.3119 5.15375L17.5829 6.50774L17.7225 6.58293L18.4516 5.22894L19.1807 3.87495L19.041 3.79975L18.3119 5.15375ZM18.4516 5.22894L17.6882 6.56389C18.3955 6.96835 18.6675 7.86526 18.291 8.59984L19.6596 9.30121L21.0281 10.0026C22.1579 7.79804 21.3423 5.11048 19.215 3.89399L18.4516 5.22894ZM19.6596 9.30121L18.2899 8.60204L18.1708 8.83544L19.5404 9.53461L20.9101 10.2338L21.0293 10.0004L19.6596 9.30121ZM19.5404 9.53461L18.1716 8.83378C17.7962 9.56709 17.7959 10.4365 18.1717 11.1702L19.5404 10.4692L20.9092 9.76814C20.9844 9.91507 20.9843 10.089 20.9093 10.2354L19.5404 9.53461ZM19.5404 10.4692L18.1708 11.1683L18.2899 11.4017L19.6596 10.7026L21.0293 10.0034L20.9101 9.77001L19.5404 10.4692ZM19.6596 10.7026L18.2748 11.3714L18.3442 11.515L19.7289 10.8461L21.1137 10.1773L21.0443 10.0338L19.6596 10.7026ZM19.7289 10.8461L18.3264 11.4767C18.6607 12.2204 18.3531 13.1056 17.6174 13.478L18.3119 14.85L19.0065 16.2221C21.2169 15.1031 22.1359 12.4496 21.1315 10.2155L19.7289 10.8461ZM18.3119 14.85L17.6181 13.4777L17.2685 13.6544L17.9623 15.0268L18.6562 16.3992L19.0058 16.2224L18.3119 14.85ZM17.9623 15.0268L17.2679 13.6547C16.5547 14.0157 16.049 14.6897 15.904 15.4781L17.4164 15.7563L18.9289 16.0344C18.8997 16.193 18.7985 16.3271 18.6567 16.3989L17.9623 15.0268ZM17.4164 15.7563L15.9036 15.4801L15.8362 15.8493L17.349 16.1254L18.8618 16.4016L18.9292 16.0324L17.4164 15.7563ZM17.349 16.1254L15.8366 15.8471C15.6881 16.6542 14.931 17.2032 14.1179 17.0936L13.9125 18.6176L13.7071 20.1416C16.1469 20.4704 18.4159 18.8248 18.8614 16.4038L17.349 16.1254ZM13.9125 18.6176L14.1191 17.0938L13.543 17.0156L13.3363 18.5395L13.1297 20.0633L13.7059 20.1415L13.9125 18.6176ZM13.3363 18.5395L13.5418 17.0155C12.8781 16.926 12.212 17.1006 11.6811 17.4911L12.5922 18.7299L13.5033 19.9688C13.3981 20.0461 13.265 20.0816 13.1309 20.0635L13.3363 18.5395ZM12.5922 18.7299L11.6155 17.5421L11.5276 17.6143L12.5043 18.8022L13.481 19.99L13.5689 19.9178L12.5922 18.7299ZM12.5043 18.8022L11.4613 17.6722L11.0423 18.0589L12.0854 19.1889L13.1284 20.3189L13.5474 19.9322L12.5043 18.8022ZM12.0854 19.1889L11.0425 18.0587C10.4539 18.6019 9.54541 18.6021 8.95612 18.0585L7.91349 19.1889L6.87086 20.3193C8.63764 21.9489 11.3611 21.9496 13.1282 20.3191L12.0854 19.1889ZM7.91349 19.1889L8.95655 18.0589L8.53761 17.6722L7.49455 18.8022L6.45148 19.9322L6.87043 20.3189L7.91349 19.1889ZM7.49455 18.8022L8.5373 17.6719C7.97664 17.1547 7.21419 16.9136 6.4575 17.0154L6.66252 18.5395L6.86753 20.0636C6.71591 20.084 6.56372 20.0357 6.4518 19.9325L7.49455 18.8022ZM6.66252 18.5395L6.45589 17.0156L5.87972 17.0938L6.08634 18.6176L6.29297 20.1415L6.86914 20.0633L6.66252 18.5395ZM6.08634 18.6176L5.88073 17.0936C5.11988 17.1963 4.40633 16.7211 4.19797 15.997L2.72013 16.4223L1.2423 16.8476C1.86813 19.0224 4.00324 20.4504 6.29195 20.1416L6.08634 18.6176ZM2.72013 16.4223L4.21654 16.0679L4.14623 15.771L2.64982 16.1254L1.15341 16.4798L1.22373 16.7767L2.72013 16.4223ZM2.64982 16.1254L4.16263 15.8493L4.09524 15.4801L2.58244 15.7563L1.06963 16.0324L1.13701 16.4016L2.64982 16.1254ZM2.58244 15.7563L4.09488 15.4781C3.96823 14.7895 3.56598 14.1867 2.98984 13.8047L2.14005 15.0864L1.29027 16.368C1.17514 16.2917 1.09537 16.1724 1.07 16.0344L2.58244 15.7563ZM2.14005 15.0864L2.90708 13.7535L2.80356 13.6939L2.03654 15.0268L1.26952 16.3597L1.37303 16.4192L2.14005 15.0864ZM2.03654 15.0268L2.73039 13.6544L2.38078 13.4777L1.68693 14.85L0.993076 16.2224L1.34268 16.3992L2.03654 15.0268ZM1.68693 14.85L2.38143 13.478C1.62168 13.0934 1.3189 12.163 1.70788 11.4038L0.339273 10.7026L-1.02933 10.0013C-2.19494 12.2762 -1.28943 15.0671 0.99243 16.2221L1.68693 14.85ZM0.339273 10.7026L1.70895 11.4017L1.82809 11.1683L0.458414 10.4692L-0.911262 9.77001L-1.0304 10.0034L0.339273 10.7026ZM0.458414 10.4692L1.86418 11.0926L1.91399 10.9803L0.508218 10.3569L-0.897549 9.73344L-0.947353 9.84575L0.458414 10.4692ZM0.508218 10.3569L1.95091 10.8893C2.16235 10.3164 2.16176 9.68669 1.95117 9.1152L0.508218 9.64691L-0.934738 10.1786C-0.976694 10.0648 -0.977046 9.9398 -0.934472 9.82444L0.508218 10.3569ZM0.508218 9.64691L1.91399 9.02348L1.86418 8.91118L0.458414 9.53461L-0.947353 10.158L-0.897549 10.2703L0.508218 9.64691ZM0.458414 9.53461L1.82809 8.83544L1.70895 8.60204L0.339273 9.30121L-1.0304 10.0004L-0.911262 10.2338L0.458414 9.53461ZM0.339273 9.30121L1.70782 8.59984C1.31882 7.8408 1.6215 6.91044 2.38141 6.5258L1.68693 5.15375L0.992447 3.78169C-1.28944 4.93669 -2.1952 7.72754 -1.02928 10.0026L0.339273 9.30121ZM1.68693 5.15375L2.38078 6.52612L2.73039 6.34936L2.03654 4.97699L1.34268 3.60462L0.993076 3.78137L1.68693 5.15375ZM2.03654 4.97699L2.80356 6.30985L2.90708 6.25028L2.14005 4.91742L1.37303 3.58456L1.26952 3.64413L2.03654 4.97699ZM2.14005 4.91742L2.98923 6.1995C3.56681 5.81695 3.96811 5.21349 4.09477 4.52622L2.58244 4.2475L1.0701 3.96877C1.09528 3.83217 1.17452 3.71241 1.29087 3.63534L2.14005 4.91742ZM2.58244 4.2475L4.09524 4.52364L4.16263 4.1545L2.64982 3.87836L1.13701 3.60221L1.06963 3.97135L2.58244 4.2475ZM2.64982 3.87836L4.14623 4.23277L4.21654 3.93589L2.72013 3.58148L1.22373 3.22707L1.15341 3.52394L2.64982 3.87836ZM2.72013 3.58148L4.19803 4.00651C4.40622 3.28261 5.1195 2.80746 5.88073 2.91017L6.08634 1.38617L6.29195 -0.137828C4.00329 -0.446603 1.86789 0.980961 1.24223 3.15645L2.72013 3.58148ZM6.08634 1.38617L5.87972 2.91003L6.45589 2.98815L6.66252 1.46429L6.86914 -0.0595661L6.29297 -0.137691L6.08634 1.38617ZM6.66252 1.46429L6.54356 2.99749L6.65684 3.00628L6.7758 1.47308L6.89475 -0.060114L6.78147 -0.0689031L6.66252 1.46429ZM6.7758 1.47308L6.74072 3.01049C7.40089 3.02555 8.04626 2.78492 8.53734 2.33183L7.49455 1.2016L6.45175 0.071368C6.55015 -0.0194215 6.67898 -0.0673305 6.81087 -0.0643218L6.7758 1.47308ZM7.49455 1.2016L8.53761 2.33158L8.95655 1.94486L7.91349 0.814879L6.87043 -0.315104L6.45148 0.0716143L7.49455 1.2016ZM7.91349 0.814879L8.89797 1.99625L9.12649 1.80582L8.14201 0.62445L7.15753 -0.556924L6.92901 -0.366495L7.91349 0.814879ZM10.6947 2.32172L11.7374 1.19132C10.7558 0.286011 9.24309 0.285868 8.26145 1.19137L9.30412 2.32172L10.3468 3.45206C10.1504 3.63322 9.84838 3.63312 9.65213 3.45211L10.6947 2.32172ZM9.30412 2.32172L8.26105 1.19173L7.84211 1.57845L8.88517 2.70843L9.92823 3.83842L10.3472 3.4517L9.30412 2.32172ZM8.88517 2.70843L7.84232 1.57826C7.52708 1.86913 7.10498 2.01437 6.67917 1.981L6.559 3.5141L6.43883 5.0472C7.71503 5.14723 8.98099 4.71248 9.92803 3.83861L8.88517 2.70843ZM6.559 3.5141L6.71634 1.98436L6.54544 1.96679L6.3881 3.49652L6.23076 5.02625L6.40166 5.04383L6.559 3.5141ZM6.3881 3.49652L6.59473 1.97266L6.01855 1.89454L5.81193 3.4184L5.6053 4.94226L6.18148 5.02038L6.3881 3.49652ZM5.81193 3.4184L6.0173 1.89437C4.74481 1.72289 3.5588 2.51703 3.2117 3.72668L4.68986 4.15082L6.16802 4.57496C6.0984 4.81757 5.86212 4.97686 5.60655 4.94242L5.81193 3.4184ZM4.68986 4.15082L3.19371 3.7953L3.17028 3.89393L4.66642 4.24945L6.16257 4.60497L6.186 4.50634L4.68986 4.15082ZM4.66642 4.24945L3.15361 3.9733L3.08623 4.34244L4.59904 4.61859L6.11185 4.89474L6.17923 4.5256L4.66642 4.24945ZM4.59904 4.61859L3.08663 4.34025C3.00513 4.78311 2.7336 5.16714 2.34728 5.39187L3.12052 6.72113L3.89376 8.05039C5.05375 7.37562 5.86702 6.22507 6.11144 4.89693L4.59904 4.61859ZM3.12052 6.72113L2.38648 5.36982L2.22828 5.45576L2.96232 6.80707L3.69636 8.15837L3.85457 8.07243L3.12052 6.72113ZM2.96232 6.80707L2.26847 5.43469L1.91886 5.61145L2.61271 6.98382L3.30656 8.3562L3.65617 8.17944L2.96232 6.80707ZM2.61271 6.98382L1.9176 5.61209C0.651437 6.2537 0.147433 7.80263 0.794731 9.06662L2.16349 8.36566L3.53225 7.66471C3.66182 7.91772 3.56086 8.22734 3.30782 8.35556L2.61271 6.98382ZM2.16349 8.36566L0.796141 9.06936L0.916258 9.30276L2.28361 8.59906L3.65096 7.89536L3.53084 7.66196L2.16349 8.36566ZM2.28361 8.59906L0.914917 9.30015C1.14058 9.74069 1.14051 10.2634 0.915042 10.7034L2.28361 11.4047L3.65218 12.1061C4.32914 10.785 4.32874 9.21854 3.6523 7.89797L2.28361 8.59906ZM2.28361 11.4047L0.916258 10.701L0.796141 10.9344L2.16349 11.6381L3.53084 12.3418L3.65096 12.1084L2.28361 11.4047ZM2.16349 11.6381L0.794625 10.9374C0.147721 12.2011 0.651356 13.75 1.91755 14.3917L2.61271 13.02L3.30787 11.6482C3.56109 11.7766 3.66177 12.0861 3.53236 12.3389L2.16349 11.6381ZM2.61271 13.02L1.91886 14.3923L2.26847 14.5691L2.96232 13.1967L3.65617 11.8243L3.30656 11.6476L2.61271 13.02ZM2.96232 13.1967L2.22828 14.548L2.38648 14.634L3.12052 13.2827L3.85457 11.9313L3.69636 11.8454L2.96232 13.1967ZM3.12052 13.2827L2.34709 14.6118C2.73376 14.8368 3.00523 15.2209 3.0866 15.6633L4.59904 15.3852L6.11148 15.107C5.86714 13.7784 5.05342 12.6282 3.89395 11.9535L3.12052 13.2827ZM4.59904 15.3852L3.08623 15.6613L3.15361 16.0305L4.66642 15.7543L6.17923 15.4782L6.11185 15.109L4.59904 15.3852ZM4.66642 15.7543L3.1695 16.1066L3.19293 16.2062L4.68986 15.8539L6.18678 15.5017L6.16335 15.4021L4.66642 15.7543ZM4.68986 15.8539L3.21229 16.2801C3.56056 17.4875 4.74566 18.2808 6.01732 18.1094L5.81193 16.5854L5.60654 15.0614C5.86222 15.0269 6.09765 15.1859 6.16742 15.4277L4.68986 15.8539ZM5.81193 16.5854L6.01855 18.1092L6.59473 18.0311L6.3881 16.5073L6.18148 14.9834L5.6053 15.0615L5.81193 16.5854ZM6.3881 16.5073L6.59354 18.0313C7.04724 17.9701 7.50543 18.1147 7.84231 18.4255L8.88517 17.2953L9.92803 16.1652C8.91823 15.2334 7.54491 14.7996 6.18266 14.9832L6.3881 16.5073ZM8.88517 17.2953L7.84211 18.4253L8.26105 18.8121L9.30412 17.6821L10.3472 16.5521L9.92823 16.1654L8.88517 17.2953ZM9.30412 17.6821L8.26207 18.813C9.24292 19.7168 10.7554 19.7183 11.7374 18.8124L10.6947 17.6821L9.65208 16.5517C9.84912 16.37 10.1506 16.371 10.3462 16.5511L9.30412 17.6821ZM10.6947 17.6821L11.7378 18.8121L12.1567 18.4253L11.1137 17.2953L10.0706 16.1654L9.65168 16.5521L10.6947 17.6821ZM11.1137 17.2953L12.1238 18.4548L12.2528 18.3425L11.2426 17.183L10.2324 16.0236L10.1035 16.1359L11.1137 17.2953ZM11.2426 17.183L12.2211 18.3693C12.551 18.0973 12.9801 17.9739 13.4051 18.0313L13.6108 16.5073L13.8164 14.9833C12.5385 14.8109 11.2519 15.1819 10.264 15.9968L11.2426 17.183ZM13.6108 16.5073L13.4041 18.0311L13.9803 18.1092L14.1869 16.5854L14.3936 15.0615L13.8174 14.9834L13.6108 16.5073ZM14.1869 16.5854L13.9821 18.1095C15.3375 18.2916 16.5971 17.3769 16.8448 16.033L15.3324 15.7543L13.8201 15.4756C13.8696 15.2073 14.1202 15.0248 14.3917 15.0613L14.1869 16.5854ZM15.3324 15.7543L16.8452 16.0305L16.9126 15.6613L15.3998 15.3852L13.887 15.109L13.8196 15.4782L15.3324 15.7543ZM15.3998 15.3852L16.9123 15.6633C16.9991 15.1911 17.3022 14.7858 17.7309 14.5688L17.0365 13.1967L16.3421 11.8246C15.0566 12.4752 14.148 13.6897 13.8874 15.107L15.3998 15.3852ZM17.0365 13.1967L17.7304 14.5691L18.08 14.3923L17.3861 13.02L16.6923 11.6476L16.3427 11.8243L17.0365 13.1967ZM17.3861 13.02L18.0814 14.3916C19.2698 13.7893 19.7846 12.39 19.3111 11.1753L17.8783 11.7338L16.4455 12.2923C16.3505 12.0485 16.4521 11.7693 16.6909 11.6483L17.3861 13.02ZM17.8783 11.7338L19.2812 11.104L19.2383 11.0083L17.8354 11.6381L16.4325 12.268L16.4754 12.3637L17.8783 11.7338ZM17.8354 11.6381L19.2027 10.9344L19.0826 10.701L17.7153 11.4047L16.3479 12.1084L16.468 12.3418L17.8354 11.6381ZM17.7153 11.4047L19.0838 10.7034C18.8582 10.2632 18.8582 9.74069 19.0839 9.30031L17.7153 8.59906L16.3466 7.89781C15.6699 9.21865 15.6698 10.7851 16.3467 12.106L17.7153 11.4047ZM17.7153 8.59906L19.0826 9.30276L19.2027 9.06936L17.8354 8.36566L16.468 7.66196L16.3479 7.89536L17.7153 8.59906ZM17.8354 8.36566L19.2041 9.06666C19.8119 7.87991 19.4045 6.44499 18.3073 5.74119L17.477 7.03558L16.6467 8.32998C16.4269 8.18898 16.3443 7.90351 16.4666 7.66466L17.8354 8.36566ZM17.477 7.03558L18.2384 5.69951L18.1476 5.64775L17.3861 6.98382L16.6247 8.3199L16.7156 8.37165L17.477 7.03558ZM17.3861 6.98382L18.08 5.61145L17.7304 5.43469L17.0365 6.80707L16.3427 8.17944L16.6923 8.3562L17.3861 6.98382ZM17.0365 6.80707L17.7309 5.43497C17.3297 5.23191 17.038 4.86295 16.9315 4.42829L15.4379 4.79437L13.9443 5.16045C14.2636 6.46323 15.1367 7.56909 16.3421 8.17917L17.0365 6.80707ZM15.4379 4.79437L16.9408 4.46874L16.9028 4.29296L15.3998 4.61859L13.8969 4.94423L13.935 5.12001L15.4379 4.79437ZM15.3998 4.61859L16.9126 4.34244L16.8452 3.9733L15.3324 4.24945L13.8196 4.5256L13.887 4.89474L15.3998 4.61859ZM15.3324 4.24945L16.8449 3.97131C16.5975 2.62631 15.3372 1.71205 13.982 1.89431L14.1869 3.4184L14.3919 4.94248C14.1208 4.97893 13.8695 4.79658 13.82 4.52759L15.3324 4.24945ZM14.1869 3.4184L13.9803 1.89454L13.4041 1.97266L13.6108 3.49652L13.8174 5.02038L14.3936 4.94226L14.1869 3.4184ZM13.6108 3.49652L13.4051 1.97252C12.9797 2.02993 12.55 1.90646 12.2207 1.63506L11.2426 2.82172L10.2645 4.00837C11.2526 4.82283 12.5397 5.19276 13.8164 5.02052L13.6108 3.49652ZM11.2426 2.82172L12.2577 1.66657L12.1288 1.55329L11.1137 2.70843L10.0986 3.86358L10.2275 3.97686L11.2426 2.82172ZM11.1137 2.70843L12.1567 1.57845L11.7378 1.19173L10.6947 2.32172L9.65168 3.4517L10.0706 3.83842L11.1137 2.70843Z" fill="#5A3F26" mask="url(#path-1-inside-1_235_4)"/>
<path d="M13 8L8.87497 12L7 10.5455" stroke="#5A3F26" stroke-width="2.05041" stroke-linecap="round" stroke-linejoin="round"/>
</svg>
