<svg width="16" height="16" viewBox="0 0 16 16" fill="none" xmlns="http://www.w3.org/2000/svg">
<path fill-rule="evenodd" clip-rule="evenodd" d="M2 7.50632C2 4.46545 4.46566 2 7.50762 2C10.5496 2 13.0152 4.46545 13.0152 7.50632C13.0152 9.0201 12.4042 10.3913 11.4152 11.3867C11.4109 11.3909 11.4065 11.3951 11.4023 11.3994C11.398 11.4037 11.3938 11.408 11.3896 11.4123C10.3939 12.4014 9.02221 13.0126 7.50762 13.0126C4.46566 13.0126 2 10.5472 2 7.50632ZM12.5576 13.9689C12.3827 13.7941 12.2953 13.7066 12.2004 13.6685C12.1108 13.6326 12.0317 13.6236 11.9364 13.6386C11.8354 13.6545 11.7193 13.7271 11.4872 13.8725C10.3335 14.595 8.96931 15.0126 7.50762 15.0126C3.36146 15.0126 0 11.6521 0 7.50632C0 3.3605 3.36146 0 7.50762 0C11.6538 0 15.0152 3.3605 15.0152 7.50632C15.0152 8.96745 14.5977 10.331 13.8754 11.4844C13.7301 11.7165 13.6574 11.8325 13.6415 11.9335C13.6265 12.0289 13.6355 12.108 13.6715 12.1976C13.7096 12.2925 13.797 12.3799 13.9719 12.5548L15.7083 14.2911C16.0988 14.6816 16.0988 15.3148 15.7083 15.7053C15.3178 16.0959 14.6846 16.0959 14.2941 15.7053L12.5576 13.9689Z" fill="#5A3F26"/>
</svg>
