<svg width="172" height="30" viewBox="0 0 172 30" fill="none" xmlns="http://www.w3.org/2000/svg">
<path d="M17.312 24.776C16.4587 24.968 15.584 25.096 14.688 25.16C13.8133 25.2453 12.9493 25.288 12.096 25.288C11.264 25.288 10.6133 25.2667 10.144 25.224C9.696 25.1813 9.09867 25.0747 8.352 24.904C7.60533 24.7333 6.92267 24.4987 6.304 24.2C5.68533 23.9013 5.024 23.464 4.32 22.888C3.63733 22.312 3.06133 21.6293 2.592 20.84C1.504 19.0053 0.96 16.6373 0.96 13.736C0.96 11.7947 1.25867 10.0773 1.856 8.584C2.47467 7.09067 3.21067 5.93867 4.064 5.128C4.93867 4.31733 5.93067 3.66667 7.04 3.176C8.832 2.36533 10.6347 1.96 12.448 1.96C15.0507 1.96 16.9173 2.17333 18.048 2.6C18.56 2.792 19.0187 3.09067 19.424 3.496C19.8293 3.90133 20.032 4.488 20.032 5.256C20.032 6.024 19.84 6.99467 19.456 8.168C19.0933 9.34133 18.56 9.928 17.856 9.928C17.6427 9.928 16.8533 9.75733 15.488 9.416C14.1227 9.07467 13.1947 8.904 12.704 8.904C11.9573 8.904 11.3173 9.32 10.784 10.152C10.272 10.984 10.016 12.168 10.016 13.704C10.016 15.24 10.24 16.4347 10.688 17.288C11.1573 18.1413 11.7653 18.568 12.512 18.568C13.0453 18.568 14.0053 18.3547 15.392 17.928C16.8 17.48 17.6213 17.256 17.856 17.256C18.5173 17.256 19.0293 17.864 19.392 19.08C19.776 20.296 19.968 21.2773 19.968 22.024C19.968 22.7707 19.7333 23.368 19.264 23.816C18.816 24.2427 18.1653 24.5627 17.312 24.776ZM28.2 25.288C26.2587 25.288 24.7333 24.8293 23.624 23.912C23.176 23.528 22.7813 22.9627 22.44 22.216C22.12 21.4693 21.96 20.5947 21.96 19.592C21.96 18.5893 22.1947 17.7147 22.664 16.968C23.1547 16.2213 23.7413 15.6453 24.424 15.24C25.1067 14.8347 25.9067 14.504 26.824 14.248C28.2107 13.8853 29.736 13.704 31.4 13.704H32.456C32.456 12.8293 32.1573 12.2107 31.56 11.848C31.304 11.6987 30.9093 11.624 30.376 11.624C29.864 11.624 29.2347 11.7627 28.488 12.04C27.7627 12.3173 27.1547 12.6053 26.664 12.904C26.1733 13.1813 25.8427 13.32 25.672 13.32C25.288 13.32 24.7653 12.8187 24.104 11.816C23.4427 10.792 23.112 9.864 23.112 9.032C23.112 8.75467 23.5067 8.392 24.296 7.944C25.0853 7.496 26.1947 7.09067 27.624 6.728C29.0747 6.344 30.4827 6.152 31.848 6.152C33.2133 6.152 34.3867 6.26933 35.368 6.504C36.3707 6.71733 37.1813 6.984 37.8 7.304C38.44 7.624 38.9733 8.05067 39.4 8.584C39.848 9.11733 40.1787 9.59733 40.392 10.024C40.6267 10.4507 40.7973 11.0053 40.904 11.688C41.0533 12.4773 41.128 13.448 41.128 14.6V24.232C41.128 24.4667 40.552 24.6587 39.4 24.808C38.2693 24.936 37.1387 25 36.008 25C34.8987 25 34.1733 24.968 33.832 24.904C33.512 24.84 33.32 24.7653 33.256 24.68C33.192 24.5947 33.1387 24.4453 33.096 24.232L32.84 22.408H32.584C32.0507 24.328 30.5893 25.288 28.2 25.288ZM32.488 19.976V16.232C31.9333 16.232 31.4853 16.4667 31.144 16.936C30.8027 17.4053 30.632 17.9387 30.632 18.536C30.632 19.944 30.952 20.648 31.592 20.648C31.8693 20.648 32.0827 20.584 32.232 20.456C32.4027 20.3067 32.488 20.1467 32.488 19.976ZM43.37 28.872V8.52C43.37 8.072 43.9673 7.61333 45.162 7.144C46.3567 6.67467 47.6473 6.44 49.034 6.44C49.674 6.44 50.1753 6.51467 50.538 6.664C50.9007 6.81333 51.1247 6.96267 51.21 7.112C51.2953 7.26133 51.4553 7.90133 51.69 9.032H51.946C51.9887 8.84 52.1807 8.54133 52.522 8.136C52.8633 7.73067 53.2047 7.4 53.546 7.144C53.9087 6.888 54.4207 6.664 55.082 6.472C55.7433 6.25867 56.5113 6.152 57.386 6.152C58.282 6.152 59.0927 6.35467 59.818 6.76C60.5433 7.144 61.0767 7.60267 61.418 8.136C61.7807 8.648 62.058 9.30933 62.25 10.12C62.4633 10.9093 62.5807 11.5493 62.602 12.04C62.6447 12.5093 62.666 13.2027 62.666 14.12C62.666 15.016 62.634 15.912 62.57 16.808C62.506 17.6827 62.3887 18.5787 62.218 19.496C62.0473 20.4133 61.802 21.2027 61.482 21.864C61.162 22.5253 60.7567 23.1227 60.266 23.656C59.2847 24.7227 57.8447 25.256 55.946 25.256C55.2633 25.256 54.6553 25.16 54.122 24.968C53.61 24.7547 53.226 24.5093 52.97 24.232C52.4367 23.656 52.1273 23.144 52.042 22.696L52.01 22.376H51.754L52.202 25.256V28.872C52.202 29.1067 51.5833 29.288 50.346 29.416C49.13 29.5653 47.8713 29.64 46.57 29.64C45.29 29.64 44.4367 29.576 44.01 29.448C43.5833 29.3413 43.37 29.1493 43.37 28.872ZM53.994 15.624C53.994 13.8107 53.898 12.5413 53.706 11.816C53.514 11.0907 53.226 10.728 52.842 10.728C52.458 10.728 52.1807 10.9413 52.01 11.368V19.752C52.01 20.3067 52.298 20.584 52.874 20.584C53.6207 20.584 53.994 18.9307 53.994 15.624ZM75.3728 22.92V21.032H75.1168C75.0101 21.1387 74.8501 21.2773 74.6368 21.448C74.4234 21.6187 73.9221 21.8427 73.1328 22.12C72.3434 22.3973 71.4581 22.536 70.4768 22.536C69.5168 22.536 68.6634 22.3867 67.9168 22.088C67.1914 21.768 66.6154 21.352 66.1888 20.84C65.7621 20.3067 65.4314 19.6027 65.1968 18.728C64.7914 17.3413 64.5888 15.3787 64.5888 12.84V8.424C64.5888 7.976 65.2181 7.53867 66.4768 7.112C67.7354 6.664 69.0581 6.44 70.4448 6.44C72.3008 6.44 73.2288 6.92 73.2288 7.88V11.912C73.2288 16.1787 73.5701 18.312 74.2528 18.312C74.6581 18.312 74.8608 18.024 74.8608 17.448V8.424C74.8608 7.976 75.5328 7.53867 76.8768 7.112C78.2208 6.664 79.6608 6.44 81.1968 6.44C82.7328 6.44 83.5008 6.856 83.5008 7.688V22.824C83.5008 27.5813 80.2794 29.96 73.8368 29.96C70.4448 29.96 68.1408 29.6293 66.9248 28.968C66.3914 28.6693 66.1248 28.36 66.1248 28.04C66.1248 27.528 66.3381 26.664 66.7648 25.448C67.1914 24.2533 67.5861 23.656 67.9488 23.656C68.0341 23.656 68.3328 23.72 68.8448 23.848C70.4234 24.2747 71.7354 24.488 72.7808 24.488C73.8474 24.488 74.5408 24.3707 74.8608 24.136C75.2021 23.9013 75.3728 23.496 75.3728 22.92ZM95.601 25H88.593C87.5263 25 86.8117 24.9253 86.449 24.776C86.0863 24.6267 85.905 24.392 85.905 24.072V3.496C85.905 2.472 88.9877 1.96 95.153 1.96C98.6943 1.96 101.137 2.30133 102.481 2.984C103.846 3.688 104.721 4.584 105.105 5.672C105.318 6.312 105.425 7.05867 105.425 7.912C105.425 9.576 105.137 10.824 104.561 11.656C104.006 12.488 103.398 12.9573 102.737 13.064C103.74 13.2773 104.572 13.768 105.233 14.536C105.894 15.304 106.225 16.6053 106.225 18.44C106.225 20.5733 105.574 22.152 104.273 23.176C103.142 24.072 101.414 24.6373 99.089 24.872C98.1077 24.9573 96.945 25 95.601 25ZM95.633 11.048C96.721 11.048 97.265 10.3227 97.265 8.872C97.265 8.14667 97.1157 7.61333 96.817 7.272C96.5397 6.90933 96.2197 6.728 95.857 6.728H94.833V11.048H95.633ZM94.833 20.232H95.633C96.721 20.232 97.265 19.5067 97.265 18.056C97.265 17.3307 97.1157 16.7973 96.817 16.456C96.5397 16.0933 96.2197 15.912 95.857 15.912H94.833V20.232ZM118.164 25.288C116.564 25.288 115.188 25.1493 114.036 24.872C112.884 24.5947 111.838 24.104 110.9 23.4C108.958 21.992 107.988 19.368 107.988 15.528C107.988 12.1147 108.98 9.672 110.964 8.2C112.82 6.83467 115.22 6.152 118.164 6.152C119.422 6.152 120.5 6.216 121.396 6.344C122.292 6.45067 123.198 6.696 124.116 7.08C125.054 7.464 125.801 7.98667 126.356 8.648C126.932 9.30933 127.401 10.2267 127.764 11.4C128.126 12.552 128.308 13.928 128.308 15.528C128.308 18.7707 127.39 21.2133 125.556 22.856C123.721 24.4773 121.257 25.288 118.164 25.288ZM117.044 19.048C117.193 19.816 117.342 20.2747 117.492 20.424C117.662 20.5733 117.876 20.648 118.132 20.648C118.409 20.648 118.622 20.5733 118.772 20.424C118.942 20.2747 119.092 19.816 119.22 19.048C119.369 18.28 119.444 17.32 119.444 16.168C119.444 14.9947 119.412 14.0987 119.348 13.48C119.305 12.84 119.241 12.3493 119.156 12.008C119.092 11.6667 118.996 11.4 118.868 11.208C118.676 10.9307 118.441 10.792 118.164 10.792C117.908 10.792 117.694 10.8773 117.524 11.048C117.353 11.1973 117.193 11.6667 117.044 12.456C116.894 13.224 116.82 14.3227 116.82 15.752C116.82 17.1813 116.894 18.28 117.044 19.048ZM140.07 25.288C138.47 25.288 137.094 25.1493 135.942 24.872C134.79 24.5947 133.744 24.104 132.806 23.4C130.864 21.992 129.894 19.368 129.894 15.528C129.894 12.1147 130.886 9.672 132.87 8.2C134.726 6.83467 137.126 6.152 140.07 6.152C141.328 6.152 142.406 6.216 143.302 6.344C144.198 6.45067 145.104 6.696 146.022 7.08C146.96 7.464 147.707 7.98667 148.262 8.648C148.838 9.30933 149.307 10.2267 149.67 11.4C150.032 12.552 150.214 13.928 150.214 15.528C150.214 18.7707 149.296 21.2133 147.462 22.856C145.627 24.4773 143.163 25.288 140.07 25.288ZM138.95 19.048C139.099 19.816 139.248 20.2747 139.398 20.424C139.568 20.5733 139.782 20.648 140.038 20.648C140.315 20.648 140.528 20.5733 140.678 20.424C140.848 20.2747 140.998 19.816 141.126 19.048C141.275 18.28 141.35 17.32 141.35 16.168C141.35 14.9947 141.318 14.0987 141.254 13.48C141.211 12.84 141.147 12.3493 141.062 12.008C140.998 11.6667 140.902 11.4 140.774 11.208C140.582 10.9307 140.347 10.792 140.07 10.792C139.814 10.792 139.6 10.8773 139.43 11.048C139.259 11.1973 139.099 11.6667 138.95 12.456C138.8 13.224 138.726 14.3227 138.726 15.752C138.726 17.1813 138.8 18.28 138.95 19.048ZM160.76 24.232C160.76 24.4667 160.163 24.6587 158.968 24.808C157.773 24.936 156.525 25 155.224 25C153.923 25 153.08 24.9467 152.696 24.84C152.312 24.712 152.12 24.5093 152.12 24.232V2.088C152.12 1.61867 152.717 1.16 153.912 0.711998C155.128 0.263999 156.429 0.039999 157.816 0.039999C159.779 0.039999 160.76 0.530666 160.76 1.512V13.48H161.176C162.2 8.59467 162.957 6.152 163.448 6.152C164.685 6.152 166.179 6.44 167.928 7.016C169.677 7.592 170.552 8.232 170.552 8.936C170.552 9.448 170.125 10.4293 169.272 11.88C168.419 13.3307 167.533 14.5147 166.616 15.432C169.667 19.08 171.192 21.2453 171.192 21.928C171.192 22.568 170.221 23.3467 168.28 24.264C166.339 25.1813 164.973 25.64 164.184 25.64C163.8 25.64 163.395 25.1813 162.968 24.264C162.541 23.3253 162.083 21.928 161.592 20.072L160.76 21.064V24.232Z" fill="#FFD7BC"/>
</svg>
