<svg width="40" height="40" viewBox="0 0 40 40" fill="none" xmlns="http://www.w3.org/2000/svg">
<rect width="40" height="40" rx="10" fill="#FFD7BC"/>
<path d="M31.7824 8.23815C29.6154 7.20221 27.2916 6.43897 24.8619 6.00183C24.8176 5.9934 24.7734 6.01448 24.7506 6.05665C24.4517 6.61045 24.1207 7.33292 23.8889 7.90079C21.2756 7.49318 18.6757 7.49318 16.116 7.90079C15.8841 7.3203 15.541 6.61045 15.2408 6.05665C15.218 6.01589 15.1738 5.9948 15.1296 6.00183C12.7012 6.43757 10.3774 7.20081 8.20899 8.23815C8.19022 8.24658 8.17413 8.26065 8.16345 8.27891C3.75564 15.1397 2.54815 21.8318 3.14051 28.4409C3.14319 28.4733 3.16061 28.5042 3.18473 28.5239C6.09288 30.7489 8.90992 32.0997 11.6746 32.9951C11.7189 33.0091 11.7658 32.9923 11.7939 32.9543C12.4479 32.0238 13.0309 31.0427 13.5308 30.011C13.5603 29.9506 13.5321 29.8789 13.4718 29.855C12.5471 29.4895 11.6666 29.0439 10.8196 28.5379C10.7526 28.4972 10.7473 28.3973 10.8089 28.3495C10.9871 28.2104 11.1654 28.0656 11.3356 27.9194C11.3664 27.8927 11.4093 27.8871 11.4455 27.904C17.0098 30.5508 23.0339 30.5508 28.5325 27.904C28.5687 27.8857 28.6116 27.8913 28.6438 27.918C28.814 28.0642 28.9922 28.2104 29.1718 28.3495C29.2334 28.3973 29.2294 28.4972 29.1624 28.5379C28.3154 29.0538 27.4349 29.4895 26.5089 29.8536C26.4486 29.8775 26.4218 29.9506 26.4513 30.011C26.9619 31.0413 27.5448 32.0224 28.1868 32.9529C28.2136 32.9923 28.2618 33.0091 28.3061 32.9951C31.0842 32.0997 33.9012 30.7489 36.8094 28.5239C36.8348 28.5042 36.8509 28.4747 36.8536 28.4423C37.5625 20.8014 35.6662 14.1642 31.8266 8.28031C31.8172 8.26065 31.8012 8.24658 31.7824 8.23815ZM14.3617 24.4167C12.6865 24.4167 11.3061 22.8143 11.3061 20.8464C11.3061 18.8786 12.6597 17.2762 14.3617 17.2762C16.0771 17.2762 17.4441 18.8926 17.4172 20.8464C17.4172 22.8143 16.0637 24.4167 14.3617 24.4167ZM25.6592 24.4167C23.984 24.4167 22.6037 22.8143 22.6037 20.8464C22.6037 18.8786 23.9572 17.2762 25.6592 17.2762C27.3746 17.2762 28.7416 18.8926 28.7148 20.8464C28.7148 22.8143 27.3746 24.4167 25.6592 24.4167Z" fill="#C99875"/>
</svg>
