<svg width="40" height="40" viewBox="0 0 40 40" fill="none" xmlns="http://www.w3.org/2000/svg">
<g clip-path="url(#clip0_608_410)">
<path d="M20 40C31.0457 40 40 31.0457 40 20C40 8.95431 31.0457 0 20 0C8.95431 0 0 8.95431 0 20C0 31.0457 8.95431 40 20 40Z" fill="#FFD7BC"/>
<path fill-rule="evenodd" clip-rule="evenodd" d="M9.05173 19.7879C14.8821 17.2477 18.77 15.5731 20.7153 14.7639C26.2695 12.4538 27.4236 12.0525 28.1759 12.0392C28.3413 12.0363 28.7112 12.0773 28.9509 12.2717C29.1532 12.4359 29.2089 12.6577 29.2355 12.8134C29.2621 12.969 29.2953 13.3236 29.2689 13.6007C28.968 16.7632 27.6656 24.4376 27.003 27.9797C26.7227 29.4784 26.1707 29.9809 25.6362 30.0301C24.4748 30.137 23.5928 29.2626 22.4679 28.5252C20.7077 27.3713 19.7132 26.653 18.0046 25.527C16.03 24.2258 17.31 23.5106 18.4354 22.3418C18.7299 22.0359 23.8472 17.3813 23.9462 16.9591C23.9586 16.9063 23.9701 16.7094 23.8532 16.6055C23.7362 16.5015 23.5636 16.5371 23.4391 16.5653C23.2625 16.6054 20.4505 18.4641 15.003 22.1413C14.2048 22.6894 13.4818 22.9564 12.8341 22.9424C12.12 22.927 10.7463 22.5387 9.72514 22.2067C8.47264 21.7996 7.47717 21.5843 7.56386 20.8929C7.60901 20.5328 8.10496 20.1644 9.05173 19.7879Z" fill="#C99875"/>
</g>
<defs>
<clipPath id="clip0_608_410">
<rect width="40" height="40" fill="white"/>
</clipPath>
</defs>
</svg>
